<?xml version="1.0" encoding="utf-8"?>
<!-- Generator: Adobe Illustrator 16.0.0, SVG Export Plug-In . SVG Version: 6.00 Build 0)  -->
<!DOCTYPE svg PUBLIC "-//W3C//DTD SVG 1.1//EN" "http://www.w3.org/Graphics/SVG/1.1/DTD/svg11.dtd">
<svg version="1.1" id="Layer_1" xmlns="http://www.w3.org/2000/svg" xmlns:xlink="http://www.w3.org/1999/xlink" x="0px" y="0px"
	 width="504.453px" height="229.648px" viewBox="0 0 504.453 229.648" enable-background="new 0 0 504.453 229.648"
	 xml:space="preserve">
<g>
	<g>
		<path fill="#FFFFFF" d="M48.456,133.946c-0.567,0.073-0.852,0.111-1.419,0.185c-5.555-11.2-8.56-15.709-15.42-14.76
			c-0.362,0.05-0.544,0.073-0.906,0.124c2.189,15.756,4.377,31.513,6.566,47.269c2.487-0.346,3.73-0.519,6.218-0.854
			c0.082,0.604,0.123,0.903,0.205,1.507c-10.674,1.438-16.006,2.207-26.66,3.831c-0.092-0.603-0.139-0.903-0.23-1.506
			c2.484-0.379,3.725-0.566,6.209-0.935c-2.335-15.734-4.664-31.469-7-47.203c-0.392,0.058-0.588,0.086-0.979,0.145
			c-6.853,1.021-8.604,6.807-10.653,18.509c-0.566,0.089-0.848,0.132-1.414,0.222c-0.841-7.239-1.262-10.859-2.096-18.1
			c14.814-2.28,29.638-4.41,44.496-6.389C46.609,123.173,47.226,126.762,48.456,133.946z"/>
		<path fill="#FFFFFF" d="M87.699,126.391c-2.371-5.325-3.564-7.985-5.965-13.302c-1.724,0.184-2.586,0.275-4.31,0.464
			c-0.06-0.548-0.089-0.822-0.149-1.37c9.382-1.024,14.076-1.502,23.468-2.389c0.052,0.549,0.077,0.823,0.129,1.372
			c-1.786,0.168-2.678,0.254-4.464,0.428c4.863,11.003,9.644,22.042,14.357,33.11c1.936-11.664,3.942-23.316,6.005-34.959
			c-3.06,0.258-4.587,0.391-7.646,0.664c-0.049-0.549-0.075-0.823-0.124-1.372c6.062-0.541,9.093-0.797,15.158-1.28
			c0.044,0.549,0.066,0.824,0.11,1.373c-2,0.16-3,0.241-4.999,0.406c-3.23,17.021-6.35,34.059-9.36,51.12
			c-2.611,0.239-3.917,0.362-6.526,0.612c-4.689-10.532-9.423-21.041-14.205-31.531c-2.098,11.2-4.154,22.404-6.167,33.62
			c-2.549,0.278-3.823,0.418-6.371,0.707c-8.089-15.915-16.311-31.754-24.675-47.526c-1.419,0.178-2.129,0.271-3.548,0.452
			c-0.07-0.547-0.104-0.822-0.174-1.369c9.82-1.253,14.734-1.842,24.567-2.943c0.062,0.548,0.092,0.821,0.154,1.369
			c-2.116,0.237-3.173,0.358-5.289,0.603c5.425,11.016,10.774,22.07,16.035,33.166C85.272,139.244,86.071,134.959,87.699,126.391z"
			/>
		<path fill="#FFFFFF" d="M149.062,105.165c14.972-1.051,25.26,10.188,25.875,24.617c0.625,14.664-8.324,26.574-23.411,27.624
			c-14.521,1.01-25.196-9.212-26.256-23.474C124.15,118.863,133.581,106.251,149.062,105.165z M159.413,128.364
			c-0.869-14.842-1.758-22.226-10.86-21.639c-9.177,0.592-9.241,8.33-8.194,23.16c0.147,2.083,0.222,3.123,0.369,5.206
			c0.96,13.601,2.392,21.33,10.995,20.775c8.235-0.531,8.854-7.594,8.003-22.146C159.601,131.578,159.539,130.507,159.413,128.364z"
			/>
		<path fill="#FFFFFF" d="M237.882,158.208c-0.042-4.496-3.494-10.244-4.011-10.259c-1.061-0.03-7.75,6.238-15.595,6.573
			c-8.567,0.366-21.093-2.087-21.513-12.956c-0.237-6.141,11.309-12.547,11.309-12.547c0.136-0.585-6.816-7.197-6.981-12.344
			c-0.318-9.93,8.142-14.267,17.036-14.455c10.643-0.225,15.251,3.741,15.317,9.396c0.059,5.005-11.939,11.935-11.939,11.935
			c-0.022,0.197,3.652,2.25,5.908,3.596c4,2.385,11.446,7.913,11.446,7.913c0.476-0.152,1.135-7.262,1.186-10.598
			c-2.369,0.019-3.554,0.027-5.923,0.055c-0.007-0.58-0.01-0.869-0.017-1.449c5.223-0.06,7.835-0.079,13.058-0.096
			c0.002,0.58,0.002,0.871,0.004,1.451c-2.099,0.007-3.15,0.012-5.25,0.025c-0.048,4.134-1.894,10.195-1.333,12.266
			c0.725,2.675,6.597,7.684,6.52,14.688c-0.11,9.91-7.899,19.897-18.048,20.327c-6.151,0.261-10.023-2.573-10.122-7.141
			c-0.078-3.626,2.436-6.147,5.958-6.209c3.742-0.065,5.894,1.723,5.941,5.131c0.01,0.726-0.122,1.597-0.4,2.616
			c-1.022,0.015-1.534,0.022-2.556,0.039c-0.695,2.188-0.23,3.843,2.683,3.802C235.514,169.9,237.938,164.301,237.882,158.208z
			 M232.597,146.443c-0.082-1.221-5.172-4.599-9.678-7.394c-5.459-3.386-13.223-9.101-13.771-8.971
			c-0.349,0.083-1.008,4.091-0.868,9.094c0.287,10.294,4.506,13.574,12.018,13.421C226.336,152.47,232.681,147.692,232.597,146.443z
			 M220.137,122.709c2.577,0.096,4.632-5.744,4.55-10.53c-0.1-5.801-2.427-8.521-6.756-8.429c-3.19,0.068-6.947,1.686-6.796,7.559
			C211.249,115.804,216.243,122.565,220.137,122.709z"/>
		<path fill="#FFFFFF" d="M299.69,145.731c0.183-6.017-4.363-8.149-13.46-10.865c-8.94-2.669-15.796-6.21-15.671-17.16
			c0.093-8.123,6.49-15.695,18.197-15.43c6.994,0.159,10.88,2.53,13.461,2.61c1.29,0.04,1.687-0.454,2.249-1.38
			c0.334,0.011,0.502,0.016,0.836,0.027c0.021,5.864,0.029,8.796,0.045,14.66c-0.481-0.016-0.723-0.023-1.204-0.039
			c-3.623-6.794-8.583-14.206-16.405-14.378c-5.469-0.121-9.319,2.867-9.389,7.146c-0.087,5.366,5.023,7.244,12.556,9.394
			c8.284,2.363,17.321,5.544,16.991,17.486c-0.28,10.132-8.752,17.141-18.632,16.788c-7.046-0.252-13.28-2.433-15.343-2.461
			c-1.179-0.017-1.631,0.774-2.236,2.145c-0.412-0.005-0.619-0.009-1.031-0.014c-0.213-6.908-0.32-10.361-0.539-17.269
			c0.506,0.006,0.759,0.01,1.265,0.016c3.631,7.298,10.632,15.885,18.73,16.081C294.528,153.196,299.53,151.024,299.69,145.731z"/>
		<path fill="#FFFFFF" d="M353.291,105.832c-0.057,5.752-0.086,8.628-0.148,14.38c-0.541-0.034-0.812-0.052-1.353-0.086
			c-3.545-9.741-6.941-13.23-16.118-13.707c-1.062-0.055-1.593-0.082-2.654-0.135c-0.449,8.953-0.671,13.43-1.121,22.383
			c1.018,0.051,1.524,0.076,2.542,0.129c4.861,0.252,8.224-3.548,9.82-8.977c0.451,0.026,0.676,0.039,1.127,0.065
			c-0.5,8.572-0.749,12.857-1.25,21.43c-0.505-0.029-0.756-0.042-1.261-0.071c-1.363-7.344-4.053-10.335-9.282-10.604
			c-0.717-0.037-1.074-0.056-1.791-0.092c-0.467,9.3-0.702,13.951-1.17,23.251c1.119,0.057,1.677,0.086,2.796,0.145
			c9.348,0.486,16.203-5.395,18.933-13.143c0.594,0.038,0.894,0.059,1.487,0.097c-0.646,6.296-0.969,9.442-1.609,15.738
			c-13.446-0.863-26.903-1.551-40.367-2.066c0.024-0.638,0.036-0.961,0.061-1.599c1.737,0.066,2.606,0.103,4.344,0.174
			c0.653-15.845,1.31-31.69,1.949-47.536c-1.79-0.073-2.686-0.109-4.476-0.178c0.024-0.638,0.038-0.956,0.062-1.594
			C326.979,104.342,340.14,105.004,353.291,105.832z"/>
		<path fill="#FFFFFF" d="M402.219,111.039c-2.361-0.221-3.541-0.33-5.902-0.542c0.049-0.549,0.074-0.823,0.123-1.372
			c4.637,0.417,6.954,0.634,11.589,1.084c-0.054,0.549-0.079,0.823-0.133,1.372c-1.423-0.138-2.133-0.207-3.556-0.342
			c-7.608,16.044-15.076,32.146-22.412,48.315c-2.466-0.206-3.698-0.308-6.164-0.504c-4.973-17.172-10.088-34.293-15.357-51.376
			c-1.395-0.094-2.094-0.14-3.488-0.23c0.036-0.55,0.056-0.824,0.092-1.374c9.925,0.646,14.885,1.009,24.801,1.809
			c-0.044,0.549-0.067,0.823-0.111,1.372c-2.151-0.173-3.226-0.259-5.377-0.425c3.307,12.365,6.522,24.754,9.645,37.167
			C391.291,134.298,396.713,122.648,402.219,111.039z"/>
		<path fill="#FFFFFF" d="M449.412,114.768c-0.4,5.738-0.602,8.606-1.008,14.344c-0.539-0.066-0.81-0.101-1.349-0.167
			c-2.961-9.937-6.146-13.622-15.289-14.647c-1.058-0.119-1.586-0.178-2.644-0.295c-0.984,8.91-1.477,13.364-2.462,22.274
			c1.014,0.112,1.519,0.169,2.532,0.282c4.844,0.543,8.433-3.048,10.354-8.371c0.449,0.053,0.674,0.079,1.123,0.133
			c-1.013,8.527-1.52,12.791-2.533,21.318c-0.503-0.06-0.753-0.089-1.256-0.148c-0.924-7.412-3.432-10.559-8.643-11.141
			c-0.715-0.08-1.069-0.12-1.784-0.199c-1.023,9.256-1.537,13.884-2.561,23.14c1.115,0.123,1.671,0.187,2.785,0.312
			c9.313,1.047,16.522-4.415,19.714-11.984c0.592,0.073,0.886,0.11,1.478,0.185c-1.021,6.246-1.531,9.369-2.548,15.615
			c-13.387-1.671-26.796-3.16-40.222-4.486c0.062-0.635,0.094-0.952,0.156-1.587c1.732,0.171,2.597,0.258,4.329,0.434
			c1.604-15.778,3.202-31.558,4.792-47.337c-1.784-0.181-2.678-0.268-4.463-0.444c0.062-0.635,0.094-0.954,0.156-1.589
			C423.202,111.698,436.317,113.155,449.412,114.768z"/>
		<path fill="#FFFFFF" d="M492.375,172.011c-4.085-0.636-6.127-0.946-10.215-1.555c-6.117-16.755-12.416-33.429-18.904-50.043
			c-1.99,15.051-3.982,30.102-5.978,45.151c1.61,0.213,2.416,0.318,4.026,0.536c-0.074,0.546-0.11,0.821-0.185,1.367
			c-4.006-0.541-6.012-0.805-10.021-1.319c0.07-0.547,0.105-0.819,0.176-1.366c1.61,0.207,2.417,0.311,4.027,0.521
			c2.077-15.868,4.164-31.734,6.242-47.603c-1.66-0.218-2.492-0.326-4.152-0.539c0.07-0.547,0.106-0.822,0.177-1.369
			c8.339,1.071,12.505,1.636,20.832,2.816c4.876,12.915,9.607,25.886,14.197,38.905c1.777-11.54,3.559-23.08,5.347-34.618
			c-1.656-0.256-2.486-0.383-4.143-0.634c0.083-0.545,0.122-0.819,0.205-1.364c4.129,0.627,6.194,0.947,10.32,1.601
			c-0.086,0.544-0.128,0.819-0.214,1.363c-1.655-0.262-2.482-0.394-4.138-0.651C497.444,139.478,494.906,155.745,492.375,172.011z"
			/>
	</g>
</g>
<text transform="matrix(1 0 0 1 147.9453 218.9302)" fill="#FFFFFF" font-family="'AbrilFatface-Regular'" font-size="36.8297">COFFEE CO.</text>
<path fill="#C13736" d="M262.993,55.94c7.973-6.014,13.984-13.007,18.599-22.376h8.393c7.692,0,13.982-6.293,13.982-13.984v-5.594
	c0-7.692-6.29-13.986-13.982-13.986H203.28v8.393c0,19.578,9.37,36.499,24.193,47.548H262.993z M279.774,30.767
	c-4.057,9.23-10.486,16.921-17.761,22.375h-33.562c-14.403-11.047-22.375-27.13-22.375-44.75V2.799h83.908
	c6.152,0,11.188,5.033,11.188,11.188v5.594c0,6.154-5.035,11.187-11.188,11.187H279.774z M200.482,61.535
	c0,3.075,2.518,5.593,5.595,5.593h78.314c3.075,0,5.594-2.519,5.594-5.593v-2.799h-89.502V61.535z M289.984,27.97
	c4.612,0,8.389-3.776,8.389-8.39v-5.594c0-4.615-3.776-8.391-8.389-8.391h-5.594v2.797c0,7.131-1.261,13.286-3.498,19.578H289.984z
	 M287.186,61.535c0,1.537-1.257,2.795-2.795,2.795h-78.314c-1.539,0-2.797-1.258-2.797-2.795H287.186z M289.984,8.393
	c3.075,0,5.594,2.517,5.594,5.594v5.594c0,3.075-2.519,5.593-5.594,5.593h-5.176c1.54-5.313,2.377-10.628,2.377-16.781H289.984z"/>
</svg>
