<?xml version="1.0" encoding="utf-8"?>
<!-- Generator: Adobe Illustrator 16.0.0, SVG Export Plug-In . SVG Version: 6.00 Build 0)  -->
<!DOCTYPE svg PUBLIC "-//W3C//DTD SVG 1.1//EN" "http://www.w3.org/Graphics/SVG/1.1/DTD/svg11.dtd">
<svg version="1.1" id="Layer_1" xmlns="http://www.w3.org/2000/svg" xmlns:xlink="http://www.w3.org/1999/xlink" x="0px" y="0px"
	 width="72.521px" height="74.074px" viewBox="0 0 72.521 74.074" enable-background="new 0 0 72.521 74.074" xml:space="preserve">
<path fill="#010101" d="M62.117,42.907c-2.159,0-3.917,1.762-3.917,3.924c0,4.999-4.065,9.067-9.074,9.067
	c-4.996,0-9.061-4.068-9.061-9.067c0-2.162-1.766-3.924-3.924-3.924c-2.164,0-3.925,1.762-3.925,3.924
	c0,4.999-4.072,9.067-9.067,9.067c-5.006,0-9.072-4.068-9.072-9.067c0-2.162-1.765-3.924-3.924-3.924
	c-1.914,0-3.447,1.414-3.783,3.244c1.812,9.679,6.069,21.383,9.614,24.935c4.083,4.084,36.473,3.885,40.365,0
	c3.426-3.425,7.752-15.672,9.499-25.231C65.401,44.177,63.937,42.907,62.117,42.907z"/>
<path fill="#010101" d="M3.827,40.35c1.639-1.599,3.863-2.591,6.326-2.591c4.995,0,9.067,4.066,9.067,9.072
	c0,2.16,1.762,3.921,3.929,3.921c2.159,0,3.921-1.761,3.921-3.921c0-5.006,4.069-9.072,9.072-9.072c4.998,0,9.062,4.066,9.062,9.072
	c0,2.16,1.762,3.921,3.922,3.921c2.17,0,3.928-1.761,3.928-3.921c0-5.006,4.072-9.072,9.063-9.072c2.517,0,4.804,1.035,6.446,2.699
	c2.408-2.243,3.957-5.383,3.957-8.94c0-6.61-5.205-11.96-11.734-12.291c-0.85-5.99-5.945-10.612-12.175-10.612
	c-0.21,0-0.409,0.05-0.618,0.062C46.424,3.663,41.794,0,36.261,0c-5.592,0-10.262,3.74-11.784,8.84
	c-0.73-0.132-1.472-0.225-2.239-0.225c-6.283,0-11.416,4.711-12.193,10.784C4.326,20.481,0,25.485,0,31.518
	C0,35.011,1.494,38.11,3.827,40.35z"/>
</svg>
