<?xml version="1.0" encoding="utf-8"?>
<!-- Generator: Adobe Illustrator 16.0.0, SVG Export Plug-In . SVG Version: 6.00 Build 0)  -->
<!DOCTYPE svg PUBLIC "-//W3C//DTD SVG 1.1//EN" "http://www.w3.org/Graphics/SVG/1.1/DTD/svg11.dtd">
<svg version="1.1" id="Layer_1" xmlns="http://www.w3.org/2000/svg" xmlns:xlink="http://www.w3.org/1999/xlink" x="0px" y="0px"
	 width="29.787px" height="27.715px" viewBox="0 0 29.787 27.715" enable-background="new 0 0 29.787 27.715" xml:space="preserve">
<polygon fill="#010101" points="6.456,25.236 7.013,25.521 7.013,10.043 6.456,9.715 "/>
<polygon fill="#010101" points="14.411,7.091 14.443,22.574 14.832,22.396 15.16,22.446 15.16,6.995 14.895,6.903 "/>
<polygon fill="#010101" points="23.592,9.401 22.875,9.792 22.875,25.543 23.592,25.119 "/>
<g>
	<polyline fill="none" points="16.857,7.141 14.895,6.338 7.002,9.566 1.517,6.589 1.517,23.014 7.092,26.039 14.832,22.885 
		14.955,22.885 16.838,23.644 22.693,26.039 28.27,23.014 28.27,6.589 22.783,9.566 20.812,8.76 	"/>
	<polygon fill="#010101" points="22.693,7.89 21.371,7.35 20.812,8.76 22.783,9.566 28.27,6.589 28.27,23.014 22.693,26.039 
		16.838,23.644 14.955,22.885 14.832,22.885 7.092,26.039 1.517,23.014 1.517,6.589 7.002,9.566 14.895,6.338 16.857,7.141 
		16.07,5.181 14.895,4.699 7.092,7.89 0,4.039 0,23.916 7.002,27.715 14.895,24.487 22.783,27.715 29.787,23.916 29.787,4.039 	"/>
</g>
<path fill="#010101" d="M19.164,0c-1.699,0-3.08,1.378-3.08,3.079c0,0.316,0.062,0.615,0.15,0.902h-0.012l2.941,7.344l3.014-7.598
	h-0.006c0.045-0.208,0.07-0.425,0.07-0.648C22.242,1.378,20.864,0,19.164,0z M19.164,4.543c-0.729,0-1.318-0.591-1.318-1.318
	c0-0.728,0.59-1.319,1.318-1.319c0.727,0,1.318,0.591,1.318,1.319C20.482,3.952,19.892,4.543,19.164,4.543z"/>
</svg>
