<?xml version="1.0" encoding="utf-8"?>
<!-- Generator: Adobe Illustrator 16.0.0, SVG Export Plug-In . SVG Version: 6.00 Build 0)  -->
<!DOCTYPE svg PUBLIC "-//W3C//DTD SVG 1.1//EN" "http://www.w3.org/Graphics/SVG/1.1/DTD/svg11.dtd">
<svg version="1.1" id="Layer_1" xmlns="http://www.w3.org/2000/svg" xmlns:xlink="http://www.w3.org/1999/xlink" x="0px" y="0px"
	 width="72.593px" height="66.845px" viewBox="0 0 72.593 66.845" enable-background="new 0 0 72.593 66.845" xml:space="preserve">
<circle fill="#010101" cx="52.207" cy="12.133" r="12.133"/>
<path fill="#010101" d="M58.315,29.713h-8.093c-3.658,0-6.986,1.389-9.514,3.653L27.15,38.929l-3.814-7.222h9.25
	c2.088,0,3.782-1.693,3.782-3.782c0-2.088-1.694-3.782-3.782-3.782H3.782C1.693,24.143,0,25.836,0,27.925
	c0,2.089,1.693,3.781,3.782,3.781h7.633c0.079,0.21,0.166,0.418,0.273,0.622l8.342,15.796c0.942,1.784,2.773,2.824,4.684,2.824
	c0.671,0,1.352-0.129,2.008-0.397l9.221-3.782v20.076h36.648V43.991C72.593,36.106,66.2,29.713,58.315,29.713z"/>
<path fill="#010101" d="M12.917,6.317c0,6.291-2.233,11.391-4.989,11.391c-2.756,0-4.99-5.1-4.99-11.391H12.917z"/>
<path fill="#010101" d="M35.272,18.92c0,1.796-5.253,3.25-11.734,3.25c-6.481,0-11.734-1.454-11.734-3.25H35.272z"/>
</svg>
