<?xml version="1.0" encoding="utf-8"?>
<!-- Generator: Adobe Illustrator 16.0.0, SVG Export Plug-In . SVG Version: 6.00 Build 0)  -->
<!DOCTYPE svg PUBLIC "-//W3C//DTD SVG 1.1//EN" "http://www.w3.org/Graphics/SVG/1.1/DTD/svg11.dtd">
<svg version="1.1" id="Layer_1" xmlns="http://www.w3.org/2000/svg" xmlns:xlink="http://www.w3.org/1999/xlink" x="0px" y="0px"
	 width="282.337px" height="127.013px" viewBox="0 0 282.337 127.013" enable-background="new 0 0 282.337 127.013"
	 xml:space="preserve">
<g>
	<path d="M12.958,50.157h7.229V9.696H9.432v9.168H0V1.058h50.334v17.807h-9.432V9.696H30.147v40.461h7.228v8.903H12.958V50.157z"/>
	<path d="M59.676,9.961h-6.17V1.058h24.682v8.903h-7.669l9.432,30.5L94.319,6.699h5.289l14.369,33.762l8.815-30.5h-7.934V1.058
		h24.682v8.903h-6.17l-15.603,49.717h-5.553L96.699,23.977L81.097,59.678h-5.554L59.676,9.961z"/>
	<path d="M142.534,30.059C142.534,13.046,154.875,0,172.505,0c17.542,0,29.53,13.134,29.53,30.059
		c0,17.013-12.341,30.059-29.971,30.059C154.523,60.118,142.534,46.984,142.534,30.059z M191.722,30.059
		c0-12.077-8.198-20.803-19.393-20.803c-11.283,0-19.481,8.639-19.481,20.803c0,12.077,8.198,20.804,19.481,20.804
		C183.524,50.863,191.722,42.224,191.722,30.059z"/>
	<path d="M277.312,34.996c-1.322,4.408-2.909,8.374-5.024,11.724l8.286,7.052l-5.466,6.347l-8.286-7.14
		c-4.76,4.319-11.106,6.964-17.982,6.964c-13.487,0-20.715-6.523-20.715-15.603c0-6.964,4.76-12.429,11.459-15.779
		c-4.848-5.553-5.73-9.167-5.73-12.782c0-6.523,5.642-13.839,15.868-13.839c9.696,0,15.955,5.289,15.955,13.311
		c0,7.405-5.113,11.812-12.165,15.074l2.557,2.292l10.137,9.167c1.322-2.116,2.38-4.496,3.174-6.964h-4.584v-7.757h17.542v7.934
		H277.312z M260.388,47.777l-10.05-9.256c-2.115-1.851-3.966-3.526-5.465-5.024c-3.791,2.116-6.788,5.642-6.788,10.049
		c0,3.967,3.878,8.286,10.754,8.286C253.247,51.832,257.038,50.422,260.388,47.777z M248.223,25.563
		c4.055-1.939,7.669-4.937,7.669-10.313c0-3.085-2.204-5.818-6.17-5.818c-3.791,0-6.083,3.526-6.083,6.523
		C243.639,18.071,244.168,20.892,248.223,25.563z"/>
</g>
<g>
	<path d="M0,112.901c0-4.335,2.583-7.194,6.364-7.194c4.058,0,6.641,3.043,6.641,5.995c0,1.476-0.276,2.583-0.83,3.689
		c2.214,1.568,5.626,2.583,9.593,2.583c6.641,0,10.883-2.951,10.883-8.208c0-4.981-5.073-7.378-11.16-9.5
		C10.238,96.207,2.306,92.61,2.306,81.357c0-9.684,7.84-17.248,20.106-17.248c11.345,0,20.107,5.811,20.107,13.098
		c0,4.334-2.675,6.825-6.18,6.825c-4.243,0-6.641-3.136-6.641-6.18c0-1.476,0.277-2.121,0.646-2.859
		c-1.661-1.015-4.243-1.845-8.024-1.845c-5.996,0-9.5,3.044-9.5,7.471c0,4.981,5.073,7.194,11.16,9.408
		c10.884,3.874,19.093,7.655,19.093,18.908c0,11.529-8.946,18.078-21.398,18.078C9.685,127.013,0,120.28,0,112.901z"/>
	<path d="M50.911,116.591h6.917V74.532h-6.917v-9.316h45.287v17.34h-9.961V74.44H68.251v16.233h18.354v8.854H68.251v17.155h18.078
		v-8.117h9.961v17.34H50.911V116.591z"/>
	<path d="M106.527,74.532h-5.534v-9.316h23.98v9.316h-6.364l13.098,33.296l13.097-33.296h-6.733v-9.316h23.981v9.316h-5.534
		l-22.044,52.02h-5.903L106.527,74.532z"/>
	<path d="M166.661,116.591h6.918V74.532h-6.918v-9.316h45.287v17.34h-9.961V74.44h-17.985v16.233h18.354v8.854h-18.354v17.155
		h18.078v-8.117h9.961v17.34h-45.379V116.591z"/>
	<path d="M236.941,84.033v32.558h7.563v9.316h-24.626v-9.316h6.917V74.532h-6.917v-9.316h15.772l29.883,38.093V74.532h-7.562v-9.316
		h24.349v9.316h-6.64v51.467l-5.626,0.185L236.941,84.033z"/>
</g>
</svg>
