<?xml version="1.0" encoding="utf-8"?>
<!-- Generator: Adobe Illustrator 16.0.0, SVG Export Plug-In . SVG Version: 6.00 Build 0)  -->
<!DOCTYPE svg PUBLIC "-//W3C//DTD SVG 1.1//EN" "http://www.w3.org/Graphics/SVG/1.1/DTD/svg11.dtd">
<svg version="1.1" id="Layer_1" xmlns="http://www.w3.org/2000/svg" xmlns:xlink="http://www.w3.org/1999/xlink" x="0px" y="0px"
	 width="424.236px" height="185.454px" viewBox="0 0 424.236 185.454" enable-background="new 0 0 424.236 185.454"
	 xml:space="preserve">
<g>
	<path d="M123.681,31.411h-2.278c-6.474-19.542-10.19-27.574-21.1-27.574h-1.439v78.887h10.19v2.518H65.295v-2.518h10.191V3.836
		h-1.559c-10.91,0-14.986,8.992-21.101,27.574h-2.278l1.199-30.092h70.734L123.681,31.411z"/>
	<path d="M187.101,26.496l-7.193-22.899h-6.833V1.319h37.166v2.278h-7.073l17.863,56.708l14.386-56.708h-12.108V1.319h23.978v2.278
		h-7.913l-22.06,82.843h-10.67L188.899,32.25l-15.585,54.189h-10.43L132.672,3.597h-5.635V1.319h38.964v2.278h-8.392l19.542,57.427
		L187.101,26.496z"/>
	<path d="M286.727,0c25.776,0,38.844,15.825,38.844,43.04c0,26.735-12.588,43.399-40.282,43.399
		c-26.735,0-39.563-15.465-39.563-41.841C245.726,17.024,259.992,0,286.727,0z M300.874,39.324c0-24.577-0.719-36.806-15.105-36.806
		c-14.506,0-15.465,12.708-15.465,37.286v8.632c0,22.539,1.438,35.487,15.465,35.487c13.428,0,15.105-11.629,15.105-35.727V39.324z"
		/>
</g>
<g>
	<path d="M408.89,93.034c0-7.433-2.878-12.349-6.354-17.024c-5.035,5.755-12.469,10.43-25.536,10.43
		c-19.062,0-34.288-5.994-34.288-22.419c0-10.19,4.796-17.024,18.822-20.141c-6.713-6.114-10.55-12.229-10.55-20.741
		C350.984,6.714,364.532,0,378.558,0c16.784,0,23.978,6.594,23.978,15.945c0,8.272-6.113,14.866-19.302,19.422
		c2.638,1.798,5.755,3.836,9.352,6.114c6.354,4.076,12.827,8.152,18.223,13.308c1.319-6.114,1.919-11.989,2.038-17.503h-9.471
		v-2.398h20.86v2.398h-8.392c-0.121,6.833-0.721,13.547-2.278,20.261c5.755,6.354,10.431,12.588,10.431,24.337
		c0,17.144-14.268,33.329-29.854,33.329c-10.43,0-16.424-4.556-16.424-12.109c0-5.994,4.195-10.07,9.951-10.07
		c6.113,0,9.59,2.997,9.59,8.632c0,1.199-0.239,2.637-0.719,4.316h-4.196c-1.198,3.597-0.479,6.354,4.316,6.354
		C404.814,112.335,408.89,103.104,408.89,93.034z M400.499,73.492c-3.957-4.196-8.273-7.673-15.467-12.468
		c-8.752-5.755-16.185-10.431-21.819-15.346c-1.198,2.518-1.798,6.713-1.798,14.986c0,17.024,6.713,22.659,18.941,22.659
		C390.188,83.323,396.422,78.887,400.499,73.492z M381.077,33.929c7.432-3.957,7.553-9.352,7.553-17.264
		c0-9.591-3.598-14.147-10.431-14.147c-5.036,0-11.03,2.518-11.03,12.229C367.168,22.18,370.167,26.375,381.077,33.929z"/>
</g>
<g>
	<path d="M48.075,170.348c0-9.951-7.433-13.188-22.179-17.384C11.39,148.888,0.36,143.133,0.36,125.031
		c0-13.428,9.951-26.016,28.414-26.016c11.029,0,17.264,3.717,21.34,3.717c2.038,0,2.638-0.839,3.477-2.398h1.318l0.839,24.217
		H53.83c-6.114-11.029-14.267-23.019-26.615-23.019c-8.632,0-14.626,5.036-14.626,12.109c0,8.872,8.152,11.869,20.261,15.106
		c13.308,3.597,28.054,8.152,28.054,28.054c0,17.264-11.749,28.652-29.373,28.652c-11.629,0-21.7-3.596-25.057-3.596
		c-1.918,0-2.638,1.318-3.597,3.596H1.199L0,156.92h2.038c5.995,11.989,17.624,26.016,30.812,26.016
		C40.043,182.936,48.075,179.1,48.075,170.348z"/>
	<path d="M130.676,100.333l1.199,23.738h-2.158c-6.594-15.705-12.229-21.1-26.735-21.1h-4.196v37.045h4.076
		c7.793,0,12.828-6.593,14.866-15.705h1.798v35.487h-2.038c-2.877-11.989-7.433-16.665-15.825-16.665h-2.877v38.484h4.556
		c15.226,0,25.776-10.43,29.373-23.498h2.398l-0.959,26.136H68.334v-2.638h7.073v-78.646h-7.073v-2.638H130.676z"/>
	<path d="M208.244,102.611h-9.352v-2.278h18.343v2.278h-5.635l-28.893,82.842h-10.071l-30.571-82.842h-5.515v-2.278h39.204v2.278
		h-8.512l20.141,59.944L208.244,102.611z"/>
	<path d="M282.813,100.333l1.198,23.738h-2.157c-6.594-15.705-12.229-21.1-26.735-21.1h-4.196v37.045h4.076
		c7.793,0,12.828-6.593,14.866-15.705h1.798v35.487h-2.038c-2.877-11.989-7.433-16.665-15.825-16.665h-2.877v38.484h4.556
		c15.226,0,25.776-10.43,29.373-23.498h2.397l-0.959,26.136h-65.819v-2.638h7.074v-78.646h-7.074v-2.638H282.813z"/>
	<path d="M363.497,184.255h-16.784l-41.122-77.568v75.29h6.594v2.278h-16.425v-2.278h6.594v-79.366h-6.594v-2.278h33.089
		l31.411,60.185v-57.907h-6.594v-2.278h16.425v2.278h-6.594V184.255z"/>
</g>
<g>
</g>
</svg>
