<?xml version="1.0" encoding="utf-8"?>
<!-- Generator: Adobe Illustrator 16.0.0, SVG Export Plug-In . SVG Version: 6.00 Build 0)  -->
<!DOCTYPE svg PUBLIC "-//W3C//DTD SVG 1.1//EN" "http://www.w3.org/Graphics/SVG/1.1/DTD/svg11.dtd">
<svg version="1.1" id="Layer_1" xmlns="http://www.w3.org/2000/svg" xmlns:xlink="http://www.w3.org/1999/xlink" x="0px" y="0px"
	 width="65.926px" height="65.923px" viewBox="0 0 65.926 65.923" enable-background="new 0 0 65.926 65.923" xml:space="preserve">
<g>
	<path fill="#010101" d="M32.963,6.403c-14.645,0-26.562,11.914-26.562,26.559S18.318,59.52,32.963,59.52
		c14.645,0,26.561-11.915,26.561-26.559S47.608,6.403,32.963,6.403 M32.963,65.923C14.787,65.923,0,51.136,0,32.961
		C0,14.786,14.787,0,32.963,0c18.176,0,32.963,14.786,32.963,32.961C65.926,51.136,51.139,65.923,32.963,65.923"/>
</g>
<polygon fill="#010101" points="33.586,40.041 16.974,24.801 21.302,20.083 32.342,30.21 43.317,13.351 48.685,16.844 "/>
</svg>
