<?xml version="1.0" encoding="utf-8"?>
<!-- Generator: Adobe Illustrator 16.0.0, SVG Export Plug-In . SVG Version: 6.00 Build 0)  -->
<!DOCTYPE svg PUBLIC "-//W3C//DTD SVG 1.1//EN" "http://www.w3.org/Graphics/SVG/1.1/DTD/svg11.dtd">
<svg version="1.1" id="Layer_1" xmlns="http://www.w3.org/2000/svg" xmlns:xlink="http://www.w3.org/1999/xlink" x="0px" y="0px"
	 width="58.906px" height="57.992px" viewBox="0 0 58.906 57.992" enable-background="new 0 0 58.906 57.992" xml:space="preserve">
<path fill="#010101" d="M58.876,30.074c-0.025-0.665-0.104-1.318-0.258-1.919c-0.715-4.093-3.953-5.718-7.33-5.423
	c-0.832,0.064-1.534,0.204-2.148,0.384c-0.051-0.205-0.104-0.397-0.166-0.563c-0.846-2.188-3.863-3.825-8.021-4.924
	c0.153-1.6-0.052-3.493-0.794-5.719C37.614,4.285,39.558,0.435,39.802,0l-0.025,0.025c0,0-9.479,2.943-5.808,13.944
	c0.293,0.896,0.524,1.727,0.702,2.52c-1.637-0.205-3.324-0.332-5.064-0.408c-0.064-1.242-0.32-2.636-0.832-4.171
	C26.23,4.286,28.162,0.436,28.404,0.001l-0.025,0.025c0,0-9.479,2.943-5.82,13.945c0.242,0.729,0.448,1.42,0.613,2.084
	c-1.675,0.063-3.337,0.178-4.951,0.358c-0.025-1.331-0.293-2.828-0.844-4.504c-2.532-7.624-0.613-11.474-0.371-11.909L16.98,0.026
	c0,0-9.479,2.943-5.807,13.945c0.41,1.228,0.704,2.353,0.896,3.39c-4.848,1.036-8.712,2.647-10.414,4.847
	c-3.313,4.299-1.139,14.66,2.047,22.35c6.907,16.629,32.159,17.307,40.193,4.873c1.42-2.227,2.073-3.108,2.736-5.117
	c4.004-0.947,7.062-2.495,9.659-6.127C58.441,35.167,59.054,32.557,58.876,30.074z M19.935,54.43
	c-2.212-0.754-5.015-2.301-8.008-5.436c-6.92-7.229-6.652-16.809-6.652-16.809s3.544,1.815,9.096,2.341
	c2.392,0.217-0.959,4.209,1.714,13.354c0.703,2.418,1.88,4.004,3.122,5.065C20,53.702,20.676,54.458,19.935,54.43z M16.736,29.999
	c-14.289-2.035-12.549-6.243-4.272-8.598c-0.051,2.675-0.755,4.145-0.908,4.453c0,0,4.324-1.343,6.013-5.603
	c2.06-0.333,4.145-0.551,6.218-0.639c0.333,3.825-0.639,5.871-0.832,6.242c0,0,4.746-1.472,6.231-6.218
	c2.06,0.102,4.093,0.333,6.05,0.678c0.167,3.377-0.704,5.193-0.882,5.54c0,0,3.568-1.101,5.477-4.504
	c0.83,0.217,1.636,0.474,2.428,0.756C49.459,24.625,38.203,33.042,16.736,29.999z M52.222,36.1
	c-1.125,0.627-2.468,0.816-3.605,0.831c0.498-2.11,0.855-4.196,1.035-6.576l0.434-0.332c0,0,1.729-0.767,3.109-0.538
	C55.319,30.355,54.128,34.859,52.222,36.1z"/>
</svg>
