<?xml version="1.0" encoding="utf-8"?>
<!-- Generator: Adobe Illustrator 16.0.0, SVG Export Plug-In . SVG Version: 6.00 Build 0)  -->
<!DOCTYPE svg PUBLIC "-//W3C//DTD SVG 1.1//EN" "http://www.w3.org/Graphics/SVG/1.1/DTD/svg11.dtd">
<svg version="1.1" id="Layer_1" xmlns="http://www.w3.org/2000/svg" xmlns:xlink="http://www.w3.org/1999/xlink" x="0px" y="0px"
	 width="485.933px" height="230.968px" viewBox="0 0 485.933 230.968" enable-background="new 0 0 485.933 230.968"
	 xml:space="preserve">
<text transform="matrix(1 0 0 1 141.0337 203.4512)" fill="#FFFFFF" font-family="'AbrilFatface-Regular'" font-size="36">COFFEE CO.</text>
<g>
	<g>
		<path fill="#FFFFFF" d="M45.929,130.271c-0.548,0.07-0.823,0.106-1.371,0.178c-5.362-10.811-8.265-15.164-14.887-14.248
			c-0.349,0.048-0.523,0.072-0.873,0.12c2.112,15.209,4.225,30.418,6.338,45.627c2.4-0.333,3.602-0.499,6.003-0.823
			c0.079,0.583,0.117,0.876,0.195,1.459c-10.303,1.389-15.45,2.126-25.734,3.693c-0.088-0.581-0.133-0.871-0.221-1.452
			c2.397-0.365,3.595-0.545,5.994-0.9c-2.252-15.189-4.505-30.378-6.758-45.567c-0.378,0.057-0.567,0.085-0.945,0.141
			c-6.615,0.986-8.304,6.568-10.281,17.865c-0.546,0.086-0.82,0.129-1.366,0.215C1.21,129.59,0.806,126.098,0,119.109
			c14.3-2.203,28.609-4.259,42.951-6.17C44.145,119.872,44.741,123.338,45.929,130.271z"/>
		<path fill="#FFFFFF" d="M83.802,122.979c-2.288-5.14-3.44-7.709-5.758-12.841c-1.664,0.177-2.496,0.267-4.16,0.448
			c-0.058-0.529-0.087-0.792-0.145-1.32c9.056-0.989,13.587-1.451,22.654-2.307c0.05,0.53,0.076,0.794,0.125,1.324
			c-1.724,0.163-2.587,0.245-4.311,0.413c4.668,10.634,9.287,21.284,13.859,31.96c1.894-11.256,3.825-22.503,5.799-33.745
			c-2.954,0.25-4.429,0.378-7.382,0.641c-0.047-0.53-0.071-0.795-0.118-1.325c5.852-0.522,8.778-0.77,14.633-1.236
			c0.042,0.53,0.063,0.796,0.105,1.327c-1.93,0.154-2.895,0.232-4.825,0.392c-3.151,16.423-6.16,32.873-9.036,49.346
			c-2.521,0.23-3.781,0.35-6.3,0.591c-4.526-10.167-9.097-20.311-13.712-30.437c-2.025,10.811-4.01,21.626-5.953,32.451
			c-2.46,0.269-3.69,0.408-6.149,0.687c-7.806-15.364-15.744-30.652-23.818-45.878c-1.37,0.172-2.057,0.259-3.426,0.434
			c-0.067-0.528-0.102-0.791-0.169-1.319c9.479-1.209,14.225-1.778,23.717-2.842c0.059,0.529,0.088,0.792,0.147,1.32
			c-2.043,0.229-3.063,0.345-5.105,0.581c5.238,10.633,10.395,21.307,15.479,32.015C81.461,135.386,82.23,131.25,83.802,122.979z"/>
		<path fill="#FFFFFF" d="M143.03,102.49c14.4-0.956,24.318,9.911,24.977,23.764c0.665,13.98-8.182,25.731-22.598,26.664
			c-13.956,0.902-24.268-8.955-25.345-22.658C118.932,115.863,128.218,103.473,143.03,102.49z M153.021,124.884
			c-0.838-14.327-1.696-21.453-10.482-20.886c-8.858,0.571-8.92,8.038-7.91,22.354c0.142,2.012,0.213,3.018,0.355,5.029
			c0.927,13.129,2.311,20.588,10.615,20.052c7.949-0.513,8.546-7.329,7.724-21.377C153.202,127.986,153.142,126.953,153.021,124.884
			z"/>
		<path fill="#FFFFFF" d="M228.758,153.692c-0.04-4.341-3.371-9.888-3.87-9.901c-1.024-0.029-7.314,6.176-15.054,6.344
			c-11.29,0.246-20.427-2.921-20.766-12.506c-0.21-5.946,10.915-12.11,10.915-12.11c0.131-0.564-6.58-6.946-6.739-11.915
			c-0.307-9.586,7.86-13.771,16.445-13.953c10.273-0.217,14.723,3.608,14.787,9.069c0.057,4.83-11.527,11.521-11.527,11.521
			c-0.021,0.191,3.526,2.173,5.705,3.472c3.861,2.302,11.048,7.639,11.048,7.639c0.46-0.147,1.097-7.011,1.145-10.231
			c-2.287,0.018-3.43,0.029-5.717,0.055c-0.006-0.561-0.01-0.84-0.017-1.4c5.041-0.058,7.563-0.076,12.604-0.092
			c0.002,0.561,0.002,0.84,0.004,1.4c-2.026,0.006-3.039,0.012-5.065,0.024c-0.047,3.991-1.83,9.843-1.289,11.841
			c0.7,2.583,6.424,7.473,6.292,14.176c-0.192,9.794-7.639,19.023-17.419,19.624c-5.816,0.357-9.677-2.483-9.772-6.894
			c-0.075-3.499,2.354-5.936,5.752-5.995c3.613-0.063,5.691,1.661,5.737,4.951c0.01,0.7-0.12,1.543-0.389,2.527
			c-0.986,0.014-1.481,0.02-2.468,0.035c-0.672,2.111-0.222,3.712,2.589,3.673C226.472,164.978,228.812,159.572,228.758,153.692z
			 M223.658,142.337c-0.08-1.179-4.993-4.439-9.343-7.138c-5.27-3.269-12.764-8.784-13.293-8.658
			c-0.337,0.08-0.971,3.947-0.836,8.775c0.277,9.938,4.349,13.105,11.601,12.957C217.615,148.154,223.739,143.543,223.658,142.337z
			 M211.631,119.428c2.486,0.093,4.47-5.547,4.391-10.167c-0.096-5.6-2.342-8.224-6.521-8.135c-3.08,0.065-6.708,1.627-6.562,7.296
			C203.05,112.76,207.873,119.289,211.631,119.428z"/>
		<path fill="#FFFFFF" d="M288.416,141.649c0.176-5.808-4.209-7.868-12.99-10.49c-8.631-2.577-15.252-5.993-15.131-16.563
			c0.09-7.84,6.266-15.15,17.566-14.894c6.752,0.153,10.504,2.442,12.994,2.52c1.246,0.039,1.629-0.439,2.17-1.332
			c0.324,0.01,0.486,0.017,0.809,0.027c0.02,5.66,0.027,8.491,0.043,14.151c-0.465-0.016-0.697-0.023-1.162-0.039
			c-3.496-6.559-8.285-13.712-15.838-13.878c-5.277-0.116-8.992,2.768-9.061,6.898c-0.084,5.18,4.852,6.994,12.121,9.068
			c7.998,2.281,16.811,5.264,16.4,16.879c-0.355,10.074-7.549,16.453-17.986,16.205c-6.887-0.164-12.82-2.351-14.811-2.378
			c-1.139-0.016-1.574,0.75-2.158,2.073c-0.398-0.005-0.598-0.009-0.994-0.014c-0.205-6.668-0.311-10.002-0.521-16.669
			c0.488,0.005,0.732,0.008,1.221,0.014c3.504,7.044,10.264,15.333,18.08,15.522C283.433,148.854,288.261,146.758,288.416,141.649z"
			/>
		<path fill="#FFFFFF" d="M340.15,103.134c-0.055,5.552-0.082,8.328-0.143,13.879c-0.523-0.033-0.783-0.049-1.307-0.081
			c-3.422-9.402-6.695-12.772-15.553-13.232c-1.025-0.053-1.537-0.08-2.562-0.131c-0.436,8.642-0.652,12.963-1.086,21.605
			c0.982,0.05,1.475,0.075,2.455,0.126c4.693,0.243,7.939-3.425,9.48-8.665c0.436,0.025,0.65,0.037,1.086,0.062
			c-0.484,8.274-0.727,12.413-1.211,20.688c-0.486-0.028-0.729-0.043-1.217-0.071c-1.314-7.089-3.908-9.974-8.955-10.233
			c-0.693-0.035-1.039-0.053-1.73-0.088c-0.451,8.978-0.678,13.465-1.129,22.442c1.08,0.055,1.621,0.082,2.701,0.139
			c9.023,0.47,15.639-5.208,18.273-12.687c0.574,0.037,0.859,0.055,1.432,0.092c-0.621,6.077-0.932,9.115-1.549,15.192
			c-12.98-0.834-25.973-1.502-38.969-1.995c0.023-0.615,0.035-0.925,0.059-1.54c1.678,0.064,2.52,0.1,4.197,0.168
			c0.625-15.296,1.252-30.591,1.881-45.886c-1.729-0.071-2.594-0.106-4.322-0.172c0.023-0.616,0.033-0.923,0.057-1.539
			C314.75,101.692,327.455,102.337,340.15,103.134z"/>
		<path fill="#FFFFFF" d="M387.378,108.16c-2.279-0.213-3.42-0.317-5.699-0.522c0.049-0.53,0.07-0.794,0.119-1.324
			c4.475,0.402,6.711,0.611,11.186,1.045c-0.053,0.529-0.076,0.793-0.127,1.322c-1.373-0.133-2.061-0.198-3.434-0.329
			c-7.344,15.487-14.553,31.029-21.635,46.637c-2.379-0.198-3.57-0.295-5.951-0.484c-4.795-16.576-9.736-33.102-14.82-49.592
			c-1.346-0.091-2.018-0.134-3.365-0.222c0.035-0.531,0.049-0.797,0.084-1.328c9.58,0.625,14.367,0.972,23.939,1.744
			c-0.043,0.53-0.061,0.796-0.104,1.326c-2.078-0.167-3.117-0.249-5.193-0.41c3.195,11.934,6.301,23.893,9.309,35.875
			C376.832,130.613,382.06,119.366,387.378,108.16z"/>
		<path fill="#FFFFFF" d="M432.923,111.761c-0.387,5.539-0.578,8.309-0.971,13.847c-0.52-0.064-0.781-0.098-1.303-0.162
			c-2.857-9.591-5.93-13.15-14.756-14.141c-1.021-0.115-1.531-0.171-2.553-0.284c-0.951,8.601-1.428,12.9-2.377,21.501
			c0.979,0.107,1.465,0.164,2.443,0.273c4.676,0.524,8.139-2.942,9.992-8.08c0.434,0.051,0.652,0.074,1.086,0.127
			c-0.979,8.23-1.471,12.348-2.447,20.578c-0.486-0.058-0.727-0.087-1.211-0.145c-0.893-7.154-3.309-10.191-8.338-10.752
			c-0.689-0.078-1.033-0.115-1.725-0.191c-0.986,8.934-1.484,13.399-2.471,22.334c1.076,0.119,1.613,0.179,2.689,0.3
			c8.99,1.01,15.943-4.259,19.023-11.565c0.57,0.07,0.859,0.106,1.43,0.178c-0.986,6.029-1.479,9.043-2.461,15.072
			c-12.922-1.613-25.867-3.055-38.828-4.328c0.061-0.613,0.094-0.92,0.154-1.533c1.674,0.165,2.51,0.245,4.182,0.414
			c1.541-15.23,3.082-30.46,4.627-45.689c-1.725-0.174-2.586-0.26-4.309-0.43c0.061-0.613,0.09-0.919,0.15-1.532
			C407.626,108.801,420.285,110.203,432.923,111.761z"/>
		<path fill="#FFFFFF" d="M474.394,167.017c-3.943-0.614-5.916-0.913-9.863-1.501c-5.902-16.174-11.984-32.269-18.242-48.308
			c-1.926,14.528-3.85,29.057-5.773,43.585c1.555,0.206,2.332,0.309,3.885,0.519c-0.07,0.527-0.107,0.79-0.18,1.317
			c-3.867-0.522-5.803-0.775-9.672-1.272c0.068-0.527,0.104-0.793,0.172-1.32c1.555,0.2,2.332,0.301,3.887,0.505
			c2.008-15.317,4.018-30.634,6.025-45.951c-1.602-0.21-2.402-0.315-4.006-0.521c0.068-0.528,0.102-0.791,0.168-1.319
			c8.051,1.034,12.074,1.578,20.113,2.718c4.699,12.469,9.268,24.987,13.699,37.554c1.721-11.139,3.439-22.278,5.162-33.418
			c-1.6-0.246-2.4-0.368-3.998-0.611c0.08-0.525,0.119-0.788,0.199-1.314c3.986,0.605,5.979,0.915,9.963,1.546
			c-0.084,0.525-0.127,0.786-0.211,1.312c-1.598-0.252-2.395-0.377-3.992-0.626C479.287,135.611,476.837,151.314,474.394,167.017z"
			/>
	</g>
</g>
<path fill="#FFFFFF" d="M253.735,55.94c7.973-6.014,13.984-13.007,18.599-22.376h8.393c7.692,0,13.982-6.293,13.982-13.984v-5.594
	c0-7.692-6.29-13.986-13.982-13.986h-86.705v8.393c0,19.578,9.37,36.499,24.193,47.548H253.735z M270.516,30.767
	c-4.057,9.23-10.486,16.921-17.761,22.375h-33.562c-14.403-11.047-22.375-27.13-22.375-44.75V2.799h83.908
	c6.152,0,11.188,5.033,11.188,11.188v5.594c0,6.154-5.035,11.187-11.188,11.187H270.516z M191.224,61.535
	c0,3.075,2.518,5.593,5.595,5.593h78.314c3.075,0,5.594-2.519,5.594-5.593v-2.799h-89.502V61.535z M280.726,27.97
	c4.612,0,8.389-3.776,8.389-8.39v-5.594c0-4.615-3.776-8.391-8.389-8.391h-5.594v2.797c0,7.131-1.261,13.286-3.498,19.578H280.726z
	 M277.927,61.535c0,1.537-1.257,2.795-2.795,2.795h-78.314c-1.539,0-2.797-1.258-2.797-2.795H277.927z M280.726,8.393
	c3.075,0,5.594,2.517,5.594,5.594v5.594c0,3.075-2.519,5.593-5.594,5.593h-5.176c1.54-5.313,2.377-10.628,2.377-16.781H280.726z"/>
<g>
	<g>
		<path fill="#FFFFFF" d="M191.309,217.522l0.184,3.644h-0.332c-1.012-2.41-1.877-3.238-4.104-3.238h-0.644v5.687h0.625
			c1.196,0,1.969-1.013,2.282-2.411h0.276v5.447h-0.313c-0.441-1.84-1.141-2.558-2.429-2.558h-0.442v5.906h0.699
			c2.337,0,3.957-1.601,4.509-3.606h0.368l-0.147,4.012H181.74v-0.405h1.086v-12.071h-1.086v-0.405H191.309z"/>
		<path fill="#FFFFFF" d="M200.969,228.27c0-1.527-1.141-2.024-3.404-2.668c-2.227-0.626-3.92-1.509-3.92-4.288
			c0-2.061,1.527-3.993,4.361-3.993c1.693,0,2.65,0.57,3.275,0.57c0.313,0,0.405-0.129,0.534-0.368h0.203l0.129,3.718h-0.294
			c-0.938-1.693-2.19-3.533-4.085-3.533c-1.325,0-2.245,0.772-2.245,1.858c0,1.361,1.251,1.822,3.11,2.318
			c2.043,0.553,4.306,1.252,4.306,4.307c0,2.649-1.803,4.397-4.508,4.397c-1.785,0-3.331-0.552-3.846-0.552
			c-0.294,0-0.405,0.202-0.552,0.552h-0.258l-0.184-4.379h0.313c0.92,1.84,2.705,3.993,4.729,3.993
			C199.736,230.202,200.969,229.613,200.969,228.27z"/>
		<path fill="#FFFFFF" d="M214.75,222.142h-0.35c-0.994-2.999-1.564-4.232-3.239-4.232h-0.221v12.108h1.564v0.387h-6.717v-0.387
			h1.564v-12.108h-0.239c-1.675,0-2.3,1.38-3.239,4.232h-0.35l0.184-4.619h10.857L214.75,222.142z"/>
		<path fill="#FFFFFF" d="M221.024,230.404h-5.208v-0.35h1.215v-12.183h-1.215v-0.35h5.687c4.545,0,7.066,1.638,7.066,6.221
			C228.569,228.932,225.422,230.404,221.024,230.404z M221.319,230.055c2.484,0,3.459-1.601,3.459-5.723v-1.067
			c0-4.472-1.141-5.393-3.717-5.393h-0.441v12.183H221.319z"/>
	</g>
	<g>
		<path fill="#FFFFFF" d="M273.961,220.485c0,2.135-1.416,3.055-5.906,6.294l-1.123,0.81h4.417c1.804,0,2.282-0.865,2.558-2.282
			h0.312l-0.184,5.098h-8.648v-2.135l1.857-1.711c2.375-2.172,3.479-3.699,3.479-6.275c0-1.822-0.35-2.613-1.619-2.613
			c-1.086,0-1.398,0.791-1.398,1.38c0,0.147,0.037,0.332,0.11,0.534h0.552c0.092,0.239,0.147,0.479,0.147,0.828
			c0,0.865-0.699,1.436-1.62,1.436c-1.141,0-1.637-0.81-1.637-1.712c0-1.546,1.27-2.815,4.25-2.815
			C272.325,217.32,273.961,218.332,273.961,220.485z"/>
		<path fill="#FFFFFF" d="M280.879,217.32c3.258,0,5.559,1.785,5.559,6.625s-2.355,6.643-5.559,6.643
			c-3.863,0-5.557-2.797-5.557-6.643C275.323,219.143,277.66,217.32,280.879,217.32z M279.095,224.902c0,3.883,0,5.3,1.784,5.3
			c1.749,0,1.805-1.398,1.805-5.153v-1.619c0-4.343,0-5.723-1.805-5.723c-1.766,0-1.784,1.546-1.784,5.558V224.902z"/>
		<path fill="#FFFFFF" d="M287.301,218.259l-0.037-0.368l4.158-0.57h1.49v12.734h1.436v0.35h-6.955v-0.35h1.932v-12.054
			L287.301,218.259z"/>
		<path fill="#FFFFFF" d="M296.463,223.743l-0.312-0.147v-5.87l0.295-0.221c1.527,0.221,5.557,0.625,6.091,0.625
			c0.423,0,0.589-0.221,0.735-0.772l0.277,0.036c-0.295,3-0.627,3.626-1.344,3.626c-0.405,0-0.902-0.147-1.527-0.313l-4.012-1.049
			l-0.092,3.57c0.828-0.441,1.803-0.718,2.889-0.718c3.68,0,4.729,1.933,4.729,3.846c0,2.632-2.006,4.232-5.282,4.232
			c-1.472,0-3.809-0.57-3.809-2.834c0-0.901,0.533-1.711,1.675-1.711c0.92,0,1.583,0.497,1.583,1.436
			c0,0.35-0.074,0.699-0.166,0.938h-0.607c-0.074,0.202-0.11,0.387-0.11,0.607c0,0.497,0.257,1.196,1.38,1.196
			c1.564,0,1.619-1.491,1.619-4.012c0-2.301-0.184-3.258-1.656-3.258C298.046,222.951,297.237,223.265,296.463,223.743z"/>
	</g>
	<g>
		<path fill="#A53737" d="M248.32,220.319c0.666-0.677,1.455-1.217,2.352-1.573c0.363-0.146,0.855-0.108,0.593-0.545
			c-0.125-0.207-0.522-0.374-0.737-0.472c-2.424-1.082-5.741-0.32-8.153,2.092c-2.546,2.547-3.255,6.099-1.895,8.548
			c0.427,0.771,0.832,1.13,1.688,0.774c0.361-0.148,0.707-0.342,1.045-0.601c0.236-0.18,0.456-0.371,0.659-0.574
			c0.855-0.854,1.449-1.917,1.809-3.041C246.244,223.163,247.099,221.54,248.32,220.319z M253.414,221.454
			c-0.091-0.49-0.23-1.252-0.77-1.429c-0.408-0.134-0.979,0.081-1.357,0.233c-0.67,0.27-1.265,0.687-1.81,1.219
			c-0.972,0.972-1.733,2.364-2.237,3.947c-0.427,1.337-1.145,2.634-2.212,3.701c-0.253,0.253-0.527,0.493-0.819,0.719
			c-0.228,0.175-0.761,0.326-0.873,0.602c-0.194,0.473,0.758,0.441,1.092,0.479c2.148,0.25,4.613-0.627,6.519-2.532
			C252.976,226.363,253.837,223.693,253.414,221.454z"/>
	</g>
</g>
</svg>
