<?xml version="1.0" encoding="utf-8"?>
<!-- Generator: Adobe Illustrator 16.0.0, SVG Export Plug-In . SVG Version: 6.00 Build 0)  -->
<!DOCTYPE svg PUBLIC "-//W3C//DTD SVG 1.1//EN" "http://www.w3.org/Graphics/SVG/1.1/DTD/svg11.dtd">
<svg version="1.1" id="Layer_1" xmlns="http://www.w3.org/2000/svg" xmlns:xlink="http://www.w3.org/1999/xlink" x="0px" y="0px"
	 width="440.707px" height="689.268px" viewBox="0 0 440.707 689.268" enable-background="new 0 0 440.707 689.268"
	 xml:space="preserve">
<g>
	<g>
		<path fill="#FFFFFF" d="M161.728,91.288c-4.054,2.433-6.486,3.04-7.297,2.027c-1.216-1.419,0.606-6.486,5.474-15.202l5.066-8.715
			c2.23-3.85,3.444-6.283,3.243-7.093c-0.203-1.013-0.812-2.028-1.825-2.637c0,0-12.757-3.037-14.592-4.661l0.607-2.838
			c0.811-3.243-1.217-8.107-4.46-7.296c-1.217,0.203-2.027,1.012-2.634,2.025c-0.406,2.028-0.608,3.244-0.812,3.448l-0.608,4.053
			c-0.406,2.635-1.621,6.486-3.445,11.35c-1.014,2.635-2.23,5.068-4.055,7.704c-5.067,5.877-9.121,10.337-12.364,13.174
			l-1.014,1.014c-0.201,2.431,1.014,3.648,3.649,3.648c1.419-0.204,3.851-2.23,7.703-6.283c3.039-3.243,5.27-6.082,6.688-8.311
			c3.244-5.878,5.878-10.946,7.703-14.796c1.823,0.608,4.459,1.419,7.498,2.635l-1.621,3.85l-5.066,9.122
			c-3.446,6.688-5.067,11.351-4.662,14.391c0.811,5.877,3.852,8.716,9.121,8.716c2.836,0,7.297-2.028,13.581-6.08l4.262-3.101
			c-0.73,1.411-1.143,2.248-1.225,2.492c-0.605,3.445,0.205,5.271,2.838,5.473c5.674,0.609,12.162-1.014,19.662-5.271
			c3.603-1.987,6.057-3.745,7.422-5.229c-0.384,1.274-0.533,2.443-0.533,3.608c0.201,2.836,1.824,5.066,4.863,6.891
			c2.635,1.418,5.475,2.23,8.516,2.23c0.404,0,0.605,0,0.605,0c5.475-0.203,10.137-1.014,13.988-2.432
			c3.798-1.83,7.093-3.66,9.78-5.489c-0.021,0.079-0.04,0.155-0.051,0.218c-0.609,3.445,0.199,5.271,2.633,5.473
			c5.878,0.609,12.366-1.014,19.864-5.271c1.486-0.819,2.776-1.6,3.877-2.338c-0.616,1.198-0.964,1.914-1.039,2.136
			c-0.605,3.445,0.205,5.271,2.84,5.473c5.674,0.609,12.156-1.014,19.658-5.271c5.875-3.243,8.717-5.877,8.717-7.702
			c0-2.026-1.219-2.634-3.652-2.026l-8.309,4.661c-4.258,2.433-7.092,3.243-8.717,2.635c-0.203,0,1.826-3.646,6.285-10.944
			c9.527-15.406,14.189-23.513,14.393-24.525c0.199-1.014-0.609-1.825-2.639-2.231c-2.633-0.405-4.662,0-5.877,1.217
			c-4.459,6.082-7.906,11.552-10.537,16.418l-5.477,9.527c-0.63,1.169-1.209,2.249-1.75,3.258c-0.606-0.316-1.506-0.315-2.703-0.015
			c-1.828,1.014-4.668,2.432-8.512,4.661c-4.256,2.433-7.096,3.243-8.514,2.635c-0.201,0,1.822-3.646,6.281-10.944l22.9-37.296
			h13.988c0.607,0,1.215-0.405,1.418-1.216l1.016-1.825c0.404-0.809,0.201-1.216-0.408-1.216h-13.461
			c0.13-0.223,0.259-0.441,0.385-0.657c-0.217,0.316-0.365,0.514-0.439,0.657h-0.064c0.199-0.588,0.394-0.793,0.591-0.805
			c3.087-5.266,4.894-8.398,5.085-9.734c0.201-1.014-0.607-1.824-2.633-2.231c-2.637-0.405-4.662,0-5.881,1.217
			c-2.025,2.027-4.66,5.877-7.703,11.553h-9.119c-0.607,0-1.215,0.407-1.621,1.216l-0.811,1.825
			c-0.404,0.812-0.404,1.216,0.205,1.216h9.117c0,0-24.663,41.935-38.105,48.646c0.607-1.419,0.809-2.837,1.01-4.458
			c0.205-1.825,0-3.851-0.201-6.08l-3.238-13.378c-0.205-3.446,0.604-6.689,2.43-9.729c0.607-0.812,0.809-1.42,0.809-1.622
			c-0.607-0.204-1.012-0.204-1.619-0.204c-3.852-0.608-6.078-1.823-6.486-3.244c0.205-0.606,0.205-1.013,0.408-1.215
			c0.605-3.039-0.609-7.296-3.854-7.296c-1.014,0-2.027,0.607-3.041,1.824l-1.621,7.702c-1.215,6.893-3.648,13.176-7.5,19.054
			c-5.471,6.284-9.525,10.742-12.16,13.174l-0.577,0.482l-3.478,1.95c-4.254,2.433-7.092,3.243-8.713,2.635
			c-0.203,0,1.824-3.646,6.283-10.944c9.527-15.406,14.188-23.513,14.391-24.525c0.205-1.014-0.607-1.825-2.635-2.231
			c-2.637-0.405-4.66,0-5.879,1.217c-4.459,6.082-10.563,14.61-11.845,16.686C174.823,82.714,163.146,90.478,161.728,91.288z
			 M215.843,67.777c0.404-0.609,0.609-1.015,0.609-1.216l2.836,15c1.217,3.851,1.621,6.892,1.217,9.119
			c-0.404,2.434-1.822,4.258-4.463,5.271c-3.037,1.418-5.471,1.418-7.697,0c-1.219-0.812-1.826-1.622-1.826-2.635
			c0-1.419,2.838-4.054,3.445-5.877c0.812-2.636-0.811-5.068-3.852-4.459C210.571,76.695,213.815,71.627,215.843,67.777z"/>
		<path fill="#FFFFFF" d="M201.251,52.37c4.053,0,8.105-2.837,11.961-8.716c1.418-2.229,2.227-4.256,2.227-5.876
			c0-1.825-1.014-2.84-2.838-2.84c-4.256,0-8.107,2.84-11.959,8.716c-1.418,2.229-2.229,4.257-2.229,5.879
			C198.413,51.356,199.427,52.37,201.251,52.37z"/>
		<path fill="#FFFFFF" d="M280.501,38.386c-0.006,0-0.013,0.005-0.019,0.005c-0.028,0.048-0.059,0.1-0.087,0.148
			C280.432,38.487,280.461,38.447,280.501,38.386z"/>
		<path fill="#FFFFFF" d="M290.503,49.533c0,1.823,1.018,2.837,2.84,2.837c4.053,0,8.107-2.837,11.961-8.716
			c1.418-2.229,2.229-4.256,2.229-5.876c0-1.825-1.016-2.84-2.836-2.84c-4.258,0-8.111,2.84-11.963,8.716
			C291.313,45.883,290.503,47.911,290.503,49.533z"/>
		<path fill="#FFFFFF" d="M231.957,124.432c6.686-9.324,9.729-14.796,9.121-16.62c-0.205-1.013-1.217-1.621-3.449-1.419
			c-8.308,6.69-20.873,12.163-38.103,16.013c-11.553,2.635-19.458,4.661-23.512,6.081c-11.959,4.256-30.357,8.422-38.668,15.92
			c-1.742,1.508-3.209,3.057-4.453,4.641c-2.48-0.711-4.675-2.415-6.415-5.896c-4.257-8.311-6.688-17.838-7.498-28.58
			c-0.204-4.459-0.204-9.121,0-14.189c0.404-5.674,1.214-10.945,2.632-16.013l1.014-3.649c0.405-1.622,0.61-3.241,0.61-4.661
			c-0.205-5.877-3.65-10.54-10.338-13.985v-0.204c15.81-5.066,27.769-14.999,35.875-29.39c4.865-8.716,7.907-13.783,8.918-15.405
			c3.853-5.674,8.515-9.729,13.986-12.362c7.498-3.447,7.703-3.447,7.498-4.256c-0.201-0.205-0.605-0.407-1.215-0.407
			c-1.217-0.203-3.648,0.203-7.5,1.216c-14.997,3.648-27.971,15.608-39.118,36.08c-6.891,12.565-14.797,19.458-23.918,20.674
			c-2.027,0.202-3.445,0.202-4.054,0.202c-2.433,0.203-3.851,0.203-4.459,0.405l6.081-11.552
			c11.553-22.094,21.282-35.876,28.78-41.35c0.812-0.608-0.2-1.013-3.036-1.419c-3.043-0.203-10.139,0.812-12.365,0.812
			c-4.664,0-11.149-0.609-19.257-1.825C89.994,1.876,83.71,1.064,80.062,0.862C68.914,0.253,59.185,1.876,50.875,5.321
			C40.334,9.982,33.849,16.468,31.618,24.982c-1.014,3.445-0.608,6.487,1.014,9.526c2.027,3.852,5.474,6.689,10.135,8.513
			c4.053,1.622,8.513,2.231,13.174,1.622c11.149-1.012,21.283-8.107,25.339-18.039c1.013-2.838,1.215-5.27,0.201-7.094
			c-1.014-1.823-2.839-3.042-5.675-3.648c-4.664-1.014-10.136,1.825-12.567,5.877c-1.216,2.229-1.014,3.649,0.406,4.663
			c0.202-0.609,0.811-1.42,1.823-2.434c1.825-2.027,4.056-2.837,6.486-2.432c1.418,0.204,2.432,0.812,3.041,1.825
			c0.202,0.607,0.202,1.419-0.405,2.636c-2.636,6.485-10.135,11.755-17.432,12.566c-4.461,0.405-8.31-0.202-11.757-2.027
			c-3.851-2.23-5.473-5.472-4.864-9.729c0.811-4.866,4.055-8.917,9.729-11.958c4.661-2.433,9.932-3.853,15.606-4.258
			c3.245-0.202,7.298,0,11.96,1.015c14.188,2.634,24.119,4.256,29.795,5.27c-3.244,3.85-6.689,8.917-10.542,15.202
			c-1.823,3.041-6.688,12.161-14.997,27.566c-7.094,13.58-12.565,22.905-16.012,28.174c-9.527,14.391-20.472,22.093-32.837,23.107
			c-8.717,0.607-15.404-1.216-20.065-5.676c-3.446-3.241-5.271-7.296-5.271-12.365c0-6.081,2.229-11.349,6.891-15.606
			c4.662-4.256,10.136-6.284,16.215-5.879c5.678,0.407,10.946,3.446,15.81,9.324c0.609-9.12-4.457-14.391-15.201-16.011
			c-4.054-0.609-7.904-0.203-11.553,1.215C6.688,71.196,0,80.316,0,93.289c0,9.282,6.366,19.229,20.267,23.714
			c5.381,1.736,11.96,1.825,19.662,0.811c7.905-1.013,14.188-2.836,18.851-5.473c6.891-3.85,13.784-10.539,20.473-19.863
			c3.646-5.067,9.324-14.797,17.025-28.985c1.821,0.608,3.648,0.812,5.271,1.014c3.649,0.203,6.282,0.608,7.703,1.418
			c2.431,1.217,3.444,3.244,3.038,6.284c-2.838,12.364-4.256,24.12-4.052,35.27c0.201,12.972,2.632,24.727,6.891,35.064
			c4.195,10.189,7.253,16.272,11.944,19.543c-0.812,4.193-0.918,8.495-0.918,12.816c0,12.161,11.552,21.08,23.915,21.08
			c5.676,0,10.945-1.418,16.014-4.257c5.471-3.038,9.324-6.891,11.147-11.755c1.622-4.053,2.026-6.08,1.216-6.08l-0.203,0.201
			c-0.201,0.609-2.229,2.636-6.081,5.879c-6.079,5.067-11.754,7.704-17.025,7.704c-2.026,0-4.054-0.407-5.878-1.218
			c-5.472-2.431-8.309-6.485-8.309-12.364c0-5.471,2.432-10.944,7.294-16.417c7.299-8.107,19.664-14.188,37.297-18.039
			c3.445-0.812,11.353-2.229,23.513-4.257c-18.04,29.796-28.58,47.025-31.823,51.485l-19.052,26.146
			c-16.622,20.472-32.274,31.758-47.025,30.606c-25.278-1.973-27.77-19.257-27.77-22.904c-0.202-11.554,8.919-21.486,20.472-22.5
			c9.729-1.013,18.27,5.927,22.499,15.812c0,0-6.229-35.885-37.099-20.005c-9.914,5.1-14.182,14.938-13.979,26.288
			c0.203,5.271,1.433,24.629,27.266,31.212c20.032,5.104,41.649-5.47,60.095-27.362c6.689-7.905,14.392-18.039,23.106-29.996
			c12.974-18.041,26.352-38.107,40.335-60.402L231.957,124.432z"/>
		<path fill="#FFFFFF" d="M354.135,150.57c4.055,0,8.111-2.836,11.961-8.716c1.424-2.23,2.232-4.257,2.232-5.877
			c0-1.826-1.02-2.839-2.838-2.839c-4.258,0-8.111,2.839-11.959,8.716c-1.422,2.229-2.23,4.256-2.23,5.879
			C351.301,149.556,352.314,150.57,354.135,150.57z"/>
		<path fill="#FFFFFF" d="M393.82,182.968c-1.021,0.405-2.234,1.013-3.65,2.027c-7.301,4.256-13.381,6.082-18.451,5.675
			c-7.088-0.606-10.338-4.255-9.729-10.945c1.625,1.623,4.26,2.229,7.703,2.027c7.303-0.609,13.176-4.054,17.838-10.134
			c1.828-2.636,3.041-5.271,3.65-8.311c1.014-5.879-2.025-10.946-7.705-12.365c-4.455-1.012-9.525,0.608-14.996,4.865
			c-4.461,3.445-8.312,7.297-11.354,11.958c-3.791,5.612-5.88,10.769-6.351,15.557l-7.987,4.479
			c-4.258,2.435-7.098,3.243-8.715,2.636c-0.205,0,1.818-3.648,6.279-10.944c9.527-15.405,14.191-23.513,14.396-24.526
			c0.201-1.013-0.615-1.826-2.641-2.23c-2.635-0.405-4.66,0-5.873,1.217c-4.461,6.081-7.904,11.553-10.545,16.416l-5.471,9.528
			c-0.622,1.156-1.195,2.224-1.731,3.224c-0.219,0.038-0.447,0.085-0.696,0.153c-2.436,1.42-8.92,5.27-11.355,6.284
			c-1.012,0.609-1.818,0.811-2.225,0.811c-0.404,0-0.609-0.201-0.609-0.406c0-0.607,0.809-2.025,2.229-4.053
			c3.443-4.662,5.674-7.906,6.893-9.931c3.854-6.082,5.672-11.352,5.877-15.608c0.201-6.486-2.434-9.73-7.906-9.73
			c-5.674,0-11.961,3.244-18.85,9.932c0-6.486-2.434-9.729-7.502-9.729c-3.646,0-7.699,1.419-12.158,4.459
			c-1.826,1.218-3.041,2.229-3.854,2.838c1.42-2.432,2.23-4.055,2.436-5.069c0.199-1.215-0.609-2.026-2.436-2.229
			c-2.836-0.607-4.863-0.203-6.078,1.216c-1.826,2.027-5.27,7.5-10.338,16.215l-6.895,11.554l-0.809,1.418l-2.042,3.456
			l-5.524,3.098c-4.256,2.435-7.092,3.243-8.512,2.636c-0.203,0,1.824-3.648,6.283-10.944c8.719-14.393,13.381-22.297,13.582-23.715
			c0.201-1.216-0.609-2.027-2.434-2.23c-2.836-0.608-5.27,0.406-7.299,2.634c-0.809,0.812-2.227,3.041-4.459,6.893
			c0.207-8.108-3.039-12.163-9.725-12.163c-5.476,0-11.352,3.243-17.435,9.527c-9.322,9.526-13.375,18.851-12.16,27.769
			c1.013,6.891,4.256,10.337,10.138,10.337c4.05,0,8.308-2.028,12.97-5.877c-0.608,3.444,0.203,5.269,2.636,5.472
			c4.763,0.493,10.063-0.481,15.896-3.137c-0.655,1.4-0.801,2.306-0.43,2.865c0.203,0.405,0.812,0.609,1.824,0.609
			c5.879,0.811,6.689-1.015,9.729-5.676l2.027-3.647l3.041-4.866c2.432-4.053,4.055-6.891,5.068-8.309
			c1.014-1.825,2.027-3.447,3.24-5.068c1.826-2.636,4.666-5.27,8.111-7.904c4.66-3.243,7.904-4.054,9.729-2.434
			c1.215,1.014,1.619,3.041,1.014,5.879c-0.203,1.418-1.217,4.053-2.635,7.499c-4.867,7.702-8.922,14.594-12.365,20.675
			c-0.811,1.418-1.014,2.635-0.609,3.446c0.205,0.202,0.814,0.405,1.826,0.608c2.633,0.202,4.66,0,6.08-1.013
			c0.811-0.61,2.025-2.231,3.65-4.866l9.727-16.822c4.256-6.691,8.516-11.555,12.77-14.19c3.648-2.229,6.287-2.635,7.906-1.216
			c1.01,1.014,1.414,3.041,0.807,5.879c-0.607,2.836-3.852,8.31-9.727,16.215c-5.473,7.296-7.904,11.959-7.295,13.986
			c0.609,2.432,4.457,2.837,11.146,1.419c5.406-2.207,9.724-4.171,12.968-5.865c-0.104,0.22-0.173,0.377-0.2,0.461
			c-0.609,3.444,0.201,5.269,2.838,5.472c5.676,0.608,12.162-1.015,19.666-5.271c2.09-1.154,3.789-2.229,5.119-3.219
			c1.525,6.401,6.687,9.503,15.5,9.127c8.918-0.405,17.631-3.243,26.35-8.311c3.039-1.825,4.66-3.647,4.457-5.472
			C397.461,182.968,396.246,182.36,393.82,182.968z M368.48,166.146c3.648-4.663,7.291-6.893,10.74-6.893
			c4.457,0,6.08,2.23,4.863,6.689v0.204c-1.621,3.85-5.062,6.891-10.336,9.322c-2.23,1.013-4.658,1.621-6.893,1.418
			c-2.225-0.202-3.443-0.606-3.643-1.62C363.002,173.846,364.83,170.806,368.48,166.146z M234.285,179.897l-2.027,3.852
			c-3.444,4.052-6.891,6.08-10.135,6.08c-4.459,0-6.687-2.837-6.687-8.309c0-4.258,1.822-9.123,5.472-14.188
			c3.851-5.27,7.7-7.906,11.955-7.906c3.043,0,4.867,1.622,5.475,4.865c0.609,2.634,0.609,5.473-0.203,8.31
			c-0.203,0.205-0.203,0.609-0.404,1.014L234.285,179.897z"/>
	</g>
	<g>
		<path fill="#FFFFFF" d="M163.805,389.059c-2.596,9.023-8.157,15.821-16.687,20.643c-1.854,0.989-3.584,1.73-5.438,2.225
			c-3.338,0.865-6.552,0.494-9.642-0.989c-0.865-0.37-2.102-1.235-3.956-2.596c-0.123-0.123-0.247-0.247-0.37-0.618
			c0-0.246,0.123-0.493,0.37-0.618c0.124,0,0.495,0.125,0.989,0.248c1.112,0.124,2.225,0.124,3.585,0
			c1.606-0.123,3.09-0.618,4.573-1.359l4.45-2.596c8.529-5.192,13.968-12.485,16.068-21.756c0.618-2.967,0.124-5.067-1.482-6.304
			c-2.102-1.36-4.945-1.36-8.529-0.124c-5.81,1.978-12.855,6.428-20.891,13.35c-3.461,2.967-6.798,6.305-10.136,10.013
			c-8.034,9.023-11.989,17.553-11.989,25.71c0,4.698,2.225,8.035,6.675,10.014c1.606,0.741,3.584,1.111,5.686,1.111
			c7.787,0,17.058-3.214,27.936-9.765c2.225-1.36,4.449-3.09,6.799-5.191c0.371,0.618,0.494,1.236,0.494,1.854
			c0,2.349-2.226,5.191-6.551,8.529c-2.968,2.349-6.799,4.326-11.372,6.058c-6.058,2.348-11.743,3.461-17.059,3.461
			c-5.81,0-10.507-1.483-14.092-4.327c-3.831-3.09-5.809-7.54-5.809-13.226c0-11.495,5.562-23.238,16.811-35.352
			c4.82-5.192,9.889-9.396,15.08-12.485c7.046-4.202,13.845-6.304,20.147-6.304c3.709,0,6.923,0.865,9.519,2.719
			c2.967,1.979,4.697,4.697,5.315,8.159C164.917,382.754,164.671,385.968,163.805,389.059z"/>
		<path fill="#FFFFFF" d="M186.673,394.62c-2.719,5.315-6.305,9.147-10.754,11.249c-1.113,0.617-2.72,1.235-4.573,1.978
			l-2.349,3.832c3.337-2.596,6.304-3.832,8.898-3.708c2.721,0.247,3.956,2.225,3.832,5.934c-0.123,2.719-1.359,5.809-3.584,9.394
			l-4.203,6.057c-0.865,1.113-1.235,1.978-1.235,2.35c0,0.246,0.124,0.37,0.37,0.37c0.619,0,2.473-0.988,5.562-2.843
			c0.865-0.618,1.73-1.113,2.596-1.483c0.248-0.124,0.494-0.124,0.742-0.124c0.988,0,1.359,0.494,1.236,1.36
			c0.123,0.37-0.248,0.988-0.865,1.854c-1.607,1.607-5.439,3.585-11.373,5.81c-4.201,0.989-6.428,0.741-6.797-0.865
			c-0.248-1.112,1.234-3.955,4.572-8.528c3.585-4.945,5.439-8.158,5.81-9.643c0.618-2.843-0.247-4.202-2.349-4.202
			c-1.854,0-4.203,1.606-7.169,4.697l-9.023,15.204c-1.483,2.596-2.348,3.955-5.934,3.461c-0.618,0-0.988-0.124-1.111-0.371
			c-0.248-0.371-0.124-0.989,0.37-1.978c1.607-2.596,3.461-5.687,5.315-9.023c1.112-1.854,4.326-7.54,9.888-16.811
			c-2.472-0.371-3.955-1.359-4.325-2.72c0.618,0.124,1.235,0.247,1.978,0.247c1.111,0,2.472-0.123,4.079-0.494l1.854-3.091
			l4.573-7.663l1.854-2.967l2.226-3.708l0.865-1.236c2.596-3.585,5.068-5.191,7.416-4.573c2.35,0.494,3.462,2.348,3.462,5.562
			C188.527,389.923,187.909,392.148,186.673,394.62z M185.437,386.463c-1.359,0.371-3.461,3.09-6.057,7.91h-0.123
			c-0.371,0.618-1.361,2.473-3.091,5.315l-2.226,3.709c6.551-2.596,12.238-8.9,12.361-15.328
			C186.302,387.204,186.055,386.339,185.437,386.463z"/>
		<path fill="#FFFFFF" d="M205.955,404.634c-6.058,10.753-12.361,18.664-19.159,23.732c-0.865,1.606-1.359,2.596-1.359,2.966
			c0,0.372,0.123,0.495,0.494,0.618c1.236,0.371,3.584-0.371,6.922-1.978c2.596-1.359,4.326-2.101,4.944-2.349
			c1.483-0.37,2.225,0,2.225,1.236c0.124,0.371-0.124,0.989-0.741,1.854c-5.811,4.078-11.125,6.057-15.822,6.057
			c-1.73,0-2.843-0.494-3.461-1.36c-0.865-1.111-0.741-2.966,0.123-5.562c0.124-0.124,0.865-2.102,2.473-5.687
			c2.844-6.798,5.934-12.979,9.147-18.418c3.832-6.551,5.933-10.012,6.181-10.259c5.314-8.406,9.27-12.608,12.113-12.608
			c2.102,0,2.72,1.73,2.102,5.191C211.146,393.632,209.046,399.07,205.955,404.634z M209.169,387.945
			c-2.225,1.731-7.787,10.878-16.563,27.318c-1.36,2.596-2.597,4.944-3.461,7.169c2.843-2.349,6.057-6.057,9.394-11.124
			c4.82-7.17,8.158-13.475,9.766-18.913c0.618-1.854,0.865-3.09,0.988-3.832C209.292,388.316,209.292,388.069,209.169,387.945z"/>
		<path fill="#FFFFFF" d="M223.63,433.311c-2.101,1.112-4.449,1.607-7.293,1.359c-0.865,0-1.729-0.123-2.471-0.37
			c-1.854,1.111-3.709,1.978-5.687,2.472c-2.843,0.617-5.438,0.494-7.664-0.618c-2.472-1.235-3.708-3.338-3.708-6.181
			c0-5.562,2.967-11.125,9.023-16.935c4.573-4.326,9.146-5.934,13.473-5.067c3.585,0.741,5.316,3.09,5.316,7.17
			c0,4.82-2.102,9.889-6.428,15.079c0.494,0.124,0.988,0.248,1.359,0.248c1.112,0,2.225-0.371,3.337-0.989
			c0.866-0.618,2.101-1.236,3.708-2.102c1.484-0.37,2.225,0,2.225,1.236C228.821,429.726,227.092,431.332,223.63,433.311z
			 M219.552,415.758c-0.371-1.854-1.607-2.843-3.585-2.843c-2.349,0-4.696,1.482-7.292,4.326c-2.844,3.338-4.327,6.427-4.327,9.271
			c0,3.585,1.607,5.192,4.82,4.82c-0.618-0.988-1.112-1.978-1.235-3.09c-0.371-2.967,0.742-5.438,3.338-7.417
			c0.246,2.968,1.359,5.439,3.461,7.417c2.101-2.102,3.584-4.449,4.449-7.293C219.799,419.096,219.923,417.365,219.552,415.758z"/>
		<path fill="#FFFFFF" d="M251.69,431.95c-5.316,3.091-10.631,4.821-16.07,5.068c-5.811,0.247-9.023-1.978-9.642-6.551
			c-0.495-3.709,0.741-7.788,3.831-12.361c1.854-2.843,4.203-5.191,6.922-7.293c3.34-2.596,6.43-3.584,9.148-2.967
			c3.461,0.865,5.316,3.955,4.695,7.54c-0.371,1.854-1.111,3.461-2.223,5.068c-2.842,3.708-6.43,5.81-10.877,6.181
			c-2.103,0.123-3.711-0.247-4.699-1.236c-0.371,4.079,1.607,6.305,5.934,6.675c3.09,0.247,6.801-0.865,11.248-3.461
			c0.867-0.618,1.607-0.989,2.225-1.236c1.486-0.37,2.227,0,2.227,1.236C254.532,429.726,253.544,430.838,251.69,431.95z
			 M246.251,416.993c0.74-2.719-0.246-4.078-2.967-4.078c-2.102,0-4.326,1.359-6.553,4.203c-2.226,2.843-3.337,4.696-3.213,5.562
			c0.123,0.618,0.865,0.865,2.225,0.988c1.359,0.125,2.844-0.246,4.201-0.864c3.217-1.483,5.316-3.338,6.307-5.686V416.993z"/>
	</g>
	<g>
		<path fill="#FFFFFF" d="M279.854,647.476c-5.253,7.582-11.841,13.908-19.757,19.09c-8.388,5.468-16.964,8.47-25.715,9.13
			c-12.572,0.948-21.584-1.843-27.035-8.374c-1.77-2.098-2.667-4.135-2.825-6.231c2.593,3.15,6.362,5.47,11.063,6.976
			c4.32,1.407,8.7,1.947,13.137,1.612c8.382-0.632,17.632-4.556,27.757-11.64c5.296-3.745,10.146-8.451,14.572-13.868
			c5.567-6.74,8.087-12.756,7.83-17.819c-0.202-4.324-2.047-7.407-5.541-9.376c-2.975-1.637-6.614-2.229-11.185-2.007
			c-0.617,0.046-1.479,0.111-2.456,0.309c-2.118,3.135-5.197,8.326-9.238,15.573c-4.145,7.5-7.215,12.814-9.097,15.808
			c-2.545,4.036-5.318,6.726-8.554,8.207c-1.318,0.595-2.427,0.679-3.565,0.393c3.234-6.44,7.683-14.834,13.226-25.17
			c2.729-4.916,5.028-8.932,7.146-12.066c-8.194,3.098-16.479,8.308-24.729,15.625c-9.531,8.404-13.723,15.289-12.697,20.666
			c1.389,3.616,5.093,5.069,11.36,4.35c6.875-0.891,13.212-3.972,18.88-9.357c4.519-4.183,6.925-8.456,7.356-12.577
			c0.106-0.256,0.078-0.625,0.164-1.13c0.369-0.027,0.749,0.067,1.147,0.412c0.641,1.932,1.017,3.641,1.241,4.985
			c1.053,7.358-2.542,13.954-10.911,19.668c-5.067,3.481-10.256,5.357-15.804,5.775c-4.807,0.362-8.957-0.438-12.577-2.396
			c-4.527-2.51-6.824-6.676-6.901-12.619c-0.041-3.839,1.615-8.179,4.845-13.011c9.017-13.573,21.962-22.73,38.712-27.464
			c2.552-0.688,4.619-1.216,6.458-1.478c3.771-4.253,7.071-6.485,9.785-6.69c0.862-0.064,3.137,0.51,2.567,1.172l-4.095,4.896
			c6.106,0.406,11.062,2.017,14.765,5.084c4.091,3.285,6.292,7.831,6.738,13.746C286.416,634.212,284.434,640.806,279.854,647.476z"
			/>
		<path fill="#FFFFFF" d="M305.464,664.88c-5.069,3.48-10.238,5.607-15.644,6.263c-5.776,0.684-9.147-1.294-10.106-5.81
			c-0.771-3.659,0.154-7.817,2.89-12.611c1.637-2.974,3.803-5.494,6.355-7.794c3.134-2.839,6.141-4.058,8.897-3.646
			c3.517,0.602,5.599,3.543,5.251,7.167c-0.23,1.874-0.85,3.533-1.837,5.221c-2.557,3.911-5.973,6.276-10.383,6.98
			c-2.085,0.281-3.716,0.032-4.775-0.879c-0.063,4.095,2.075,6.165,6.417,6.209c3.102,0.014,6.715-1.373,10.958-4.296
			c0.814-0.681,1.526-1.109,2.123-1.402c1.452-0.48,2.22-0.167,2.313,1.067C308.13,662.447,307.229,663.632,305.464,664.88z
			 M298.915,650.374c0.533-2.768-0.555-4.048-3.266-3.843c-2.096,0.157-4.212,1.68-6.216,4.682
			c-2.005,3.002-2.976,4.936-2.787,5.791c0.169,0.606,0.928,0.797,2.292,0.817c1.367,0.021,2.817-0.46,4.126-1.178
			c3.095-1.722,5.051-3.73,5.859-6.146L298.915,650.374z"/>
		<path fill="#FFFFFF" d="M329.17,635.698c-5.23,11.179-10.923,19.541-17.321,25.106c-0.742,1.665-1.16,2.691-1.132,3.06
			c0.027,0.369,0.159,0.484,0.539,0.579c1.261,0.276,3.546-0.639,6.753-2.494c2.486-1.549,4.156-2.421,4.755-2.714
			c1.45-0.48,2.219-0.167,2.312,1.066c0.15,0.361-0.049,0.995-0.601,1.906c-5.485,4.503-10.638,6.875-15.322,7.229
			c-1.726,0.13-2.87-0.278-3.551-1.098c-0.947-1.042-0.964-2.901-0.296-5.555c0.113-0.133,0.704-2.162,2.036-5.855
			c2.324-6.994,4.94-13.389,7.737-19.054c3.328-6.819,5.164-10.431,5.391-10.695c4.667-8.781,8.297-13.271,11.131-13.484
			c2.095-0.158,2.843,1.521,2.485,5.02C333.52,624.335,331.833,629.92,329.17,635.698z M331.118,618.814
			c-2.088,1.895-6.946,11.433-14.461,28.488c-1.16,2.69-2.216,5.125-2.912,7.407c2.658-2.553,5.584-6.495,8.532-11.8
			c4.267-7.513,7.119-14.049,8.313-19.593c0.478-1.896,0.63-3.146,0.697-3.894C331.27,619.175,331.251,618.929,331.118,618.814z"/>
		<path fill="#FFFFFF" d="M351.048,662.807c-4.366,2.933-8.36,4.225-11.962,4.125c-1.487-0.012-2.065-1.085-1.852-3.21
			c-2.659,2.557-5.154,3.985-7.62,4.172c-3.574,0.27-5.705-1.678-6.639-5.823c-1.147-5.367,0.891-11.223,6.123-17.443
			c3.409-4.098,6.836-6.341,10.164-6.592c4.068-0.307,6.224,2.011,6.473,6.95c1.181-2.444,1.939-3.867,2.396-4.396
			c1.133-1.447,2.562-2.178,4.317-1.938c1.119,0.039,1.649,0.498,1.583,1.246c-0.059,0.87-2.531,5.892-7.171,15.042
			c-2.376,4.643-3.443,6.955-3.321,6.946c0.891,0.304,2.579-0.319,5.057-1.994l4.84-3.216c1.577-0.49,2.343-0.177,2.436,1.058
			C355.955,658.84,354.349,660.574,351.048,662.807z M342.463,645.976c-0.517-1.945-1.701-2.848-3.55-2.708
			c-2.588,0.195-4.811,1.973-6.909,5.356c-1.986,3.248-2.873,6.29-2.678,8.879c0.251,3.326,1.736,4.951,4.447,4.747
			c1.974-0.148,3.976-1.542,5.886-4.165l1.056-2.433l1.808-3.979c0.104-0.256,0.086-0.502,0.199-0.635
			C343.084,649.273,342.954,647.551,342.463,645.976z"/>
		<path fill="#FFFFFF" d="M384.009,657.718c-1.489,1.598-5.164,3.859-10.902,6.647c-4.128,1.178-6.363,1.1-6.847-0.354
			c-0.472-1.325,0.796-4.271,3.797-8.839c3.212-5.077,4.934-8.553,5.172-10.308c0.282-2.872-0.439-4.179-2.285-4.04
			c-2.343,0.177-5.028,2.363-8.061,6.558c-0.771,1.299-2.386,4.52-4.981,9.55l-1.624,3.098l-1.067,2.312
			c-1.636,2.975-2.045,4.12-5.656,3.896c-0.615,0.047-0.997-0.048-1.138-0.285c-0.275-0.351-0.199-0.979,0.223-2.001l4.191-8.497
			l0.43-0.899l3.659-7.342c2.682-5.533,4.528-9.019,5.545-10.336c0.674-0.918,1.888-1.257,3.641-1.018
			c1.118,0.039,1.651,0.494,1.583,1.242c-0.09,0.506-0.288,1.14-0.603,1.905c3.038-2.461,5.666-3.772,7.884-3.939
			c3.33-0.252,5.08,1.601,5.255,5.552c0.072,2.599-0.919,5.896-2.858,9.762l-3.86,6.364c-0.776,1.173-1.082,2.066-1.045,2.559
			c0.01,0.123,0.142,0.237,0.389,0.219c0.123-0.01,2.847-1.703,7.933-4.938c1.326-0.472,1.973-0.149,2.066,1.086
			C384.875,656.04,384.552,656.683,384.009,657.718z"/>
		<path fill="#FFFFFF" d="M408.01,657.146c-5.064,3.48-10.233,5.607-15.64,6.263c-5.773,0.683-9.148-1.294-10.107-5.81
			c-0.771-3.659,0.152-7.817,2.894-12.611c1.633-2.975,3.799-5.494,6.352-7.794c3.135-2.84,6.142-4.058,8.899-3.646
			c3.515,0.602,5.597,3.543,5.247,7.167c-0.23,1.874-0.848,3.533-1.835,5.221c-2.555,3.91-5.973,6.275-10.38,6.98
			c-2.086,0.28-3.719,0.032-4.776-0.879c-0.063,4.095,2.073,6.164,6.417,6.209c3.1,0.014,6.714-1.373,10.954-4.296
			c0.817-0.681,1.528-1.109,2.125-1.402c1.452-0.48,2.22-0.167,2.313,1.067C410.679,654.712,409.776,655.897,408.01,657.146z
			 M401.465,642.64c0.532-2.768-0.554-4.048-3.265-3.844c-2.096,0.158-4.214,1.681-6.219,4.683
			c-2.006,3.002-2.973,4.936-2.785,5.791c0.169,0.606,0.926,0.797,2.293,0.817c1.364,0.021,2.817-0.46,4.124-1.178
			c3.097-1.723,5.049-3.73,5.861-6.146L401.465,642.64z"/>
		<path fill="#FFFFFF" d="M438.563,654.594c-3.646,2.631-7.935,4.938-12.991,6.929l-4.756,9.286
			c-3.118,6.309-5.076,9.926-5.627,10.834c-3.429,5.465-6.215,8.031-8.353,7.572c-1.631-0.248-2.612-1.787-2.826-4.62
			c-0.195-2.59,0.546-5.867,2.24-9.713c3.089-6.681,6.853-11.054,14.119-14.951l1.729-3.353c-2.204,2.027-5.314,3.5-9.201,4.539
			c-1.699,0.499-3.178,0.611-4.544,0.59c-1.622-0.125-2.312-1.066-1.949-2.827c0.27-1.386,1.012-3.051,1.97-5.107
			c2.14-4.502,5.603-11.207,10.271-19.991c0.321-0.643,1.288-0.964,2.769-1.075c1.847-0.14,2.626,0.297,2.455,1.304
			c-0.164,1.126-2.743,6.403-7.743,15.704c-1.406,2.71-2.596,5.031-3.317,6.946c0.379,0.095,0.747,0.067,1.117,0.039
			c1.357-0.103,3.275-0.989,5.761-2.542c2.237-1.531,3.994-2.904,5.134-4.229c0.798-0.931,1.575-2.104,2.233-3.267
			c1.833-3.612,4.089-8.242,7.02-13.794c0.428-0.901,1.641-1.241,3.641-1.021c1.118,0.04,1.649,0.498,1.583,1.246
			c-0.09,0.502-0.175,1.004-0.395,1.392c-0.284,1.139-1.234,3.318-2.861,6.416l-7.883,15.468c2.297-0.792,5.74-2.788,10.201-6.1
			c1.45-0.48,2.22-0.168,2.313,1.067C440.87,652.312,440.203,653.356,438.563,654.594z M417.898,664.952
			c-6.179,3.564-11.205,10.887-11.792,17.874c-0.058,0.871-0.021,1.364,0.12,1.601c0.142,0.236,0.275,0.351,0.512,0.209
			c0.835-0.435,1.966-1.882,3.494-4.601c2.859-4.803,4.914-8.799,6.285-12.003L417.898,664.952z"/>
	</g>
	<g>
		<path fill="#FFFFFF" d="M237.125,248.413c0.501-1.278,2.561-5.96,2.566-6.834c0.039-0.63-0.516-1.054-1.775-1.133
			c-1.625-0.029-2.816,0.381-3.451,1.217c-1.059,1.391-2.338,3.934-3.709,7.612l-5.513,0.747c-0.368,0.049-0.702,0.344-0.88,0.866
			l-0.342,1.17c-0.178,0.522-0.145,0.768,0.223,0.718l5.514-0.746l-10.634,24.64c-1.976,4.76-2.975,7.514-2.997,8.266
			c-0.086,2.133,0.554,3.17,2.041,3.092c3.602-0.112,7.388-1.625,11.572-4.811c0.87-0.647,1.606-1.248,2.229-1.806
			c-0.42,0.972-0.833,1.916-1.224,2.792c-0.357,1.045-0.396,1.677-0.102,2.011c0.156,0.227,0.539,0.299,1.15,0.217
			c3.621,0.009,4.295-1.455,5.416-4.227l6.899-16.277c2.525-3.459,4.639-5.369,6.475-5.617c2.084-0.283,3.123,0.95,2.891,3.85
			c-0.168,1.52-1.574,4.954-4.461,10.335c-2.693,4.979-3.781,7.997-3.389,9.065c0.584,1.543,2.822,1.49,6.854-0.056
			c4.498-2.418,7.64-4.487,9.419-6.148c1.262,3.156,3.376,4.539,6.521,4.113c2.449-0.331,4.855-1.905,7.359-4.613
			c-0.086,2.133,0.555,3.169,2.039,3.092c2.5-0.078,5.151-0.856,7.936-2.379c-0.016,0.326,0.047,0.565,0.193,0.731
			c0.154,0.227,0.539,0.3,1.152,0.217c3.619,0.011,3.957-1.159,5.414-4.227l0.926-2.369l1.439-3.189
			c2.293-5.176,3.717-8.487,4.406-9.827c2.775-4.367,5.328-6.711,7.654-7.025c1.838-0.249,2.633,1.016,2.525,3.898
			c-0.133,1.766-1.646,5.338-4.551,10.596c-2.727,4.736-3.816,7.754-3.266,9.052c0.566,1.419,2.805,1.365,6.854-0.056
			c5.564-3.125,9.094-5.599,10.488-7.284c0.479-1.063,0.764-1.725,0.713-2.094c-0.164-1.225-0.826-1.509-2.123-0.959
			c-4.885,3.531-7.502,5.383-7.623,5.399c-0.248,0.033-0.389-0.072-0.406-0.196c-0.066-0.487,0.189-1.398,0.895-2.614l3.477-6.583
			c1.703-3.974,2.498-7.324,2.271-9.913c-0.408-3.938-2.268-5.68-5.572-5.232c-2.205,0.3-4.752,1.767-7.637,4.402
			c0.268-0.784,0.43-1.431,0.484-1.938c0.025-0.752-0.531-1.176-1.648-1.148c-1.768-0.135-2.957,0.277-3.578,1.232
			c-0.936,1.375-2.57,4.965-4.918,10.646l-3.219,7.546l-0.375,0.924l-1.645,3.9l-1.191,0.897c-2.373,1.821-4.021,2.542-4.928,2.291
			c-0.125,0.017,0.803-2.355,2.9-7.129c4.088-9.41,6.26-14.568,6.266-15.443c0.023-0.752-0.535-1.175-1.652-1.147
			c-1.764-0.136-3.15,0.675-4.193,2.189c-0.426,0.557-1.1,2.021-2.133,4.53c-0.539-4.916-2.83-7.102-6.873-6.555
			c-3.309,0.449-6.596,2.89-9.756,7.186c-4.121,5.535-5.951,10.672-5.515,15.334c-0.654,0.431-1.299,0.922-1.931,1.515
			c-2.812,2.254-4.52,3.48-5.131,3.564c-0.244,0.033-0.385-0.072-0.416-0.316c-0.051-0.368,0.201-1.275,0.908-2.495l3.354-6.566
			c1.723-3.85,2.533-7.078,2.289-9.789c-0.375-3.69-1.865-5.486-4.594-5.364c-2.588,0.225-5.363,1.849-8.32,4.869l1.812-4.114
			c1.736-0.982,3.248-1.812,4.266-2.572c4.129-2.68,7.166-6.958,9.148-12.592c0.893-2.613,1.207-4.902,0.941-6.861
			c-0.432-3.187-1.783-4.873-4.178-5.048c-2.41-0.298-4.645,1.626-6.734,5.528l-0.691,1.341l-1.709,3.972l-1.438,3.189l-2.267,5.31
			L237.125,248.413z M269.661,262.093c1.896-3.5,4.008-5.408,6.58-5.758c1.838-0.248,3.072,0.582,3.705,2.492
			c0.584,1.543,0.816,3.258,0.559,5.039c-0.107,0.139-0.074,0.385-0.162,0.645l-1.568,4.079l-0.91,2.494
			c-1.75,2.73-3.666,4.239-5.627,4.505c-2.693,0.365-4.273-1.168-4.723-4.474C267.167,268.542,267.872,265.453,269.661,262.093z
			 M252.663,246.183c1.334-3.049,6.113-13.801,7.412-14.351c0.596-0.206,0.957,0.618,1.072,1.476
			c0.74,6.387-4.047,13.396-10.191,16.849L252.663,246.183z M243.661,253.39c-1.543,0.584-3.072,1.796-5.968,1.059
			c0.549,1.297,2.152,2.078,4.649,2.113c-4.265,9.935-8.41,21.531-20.028,26.165c-0.123,0.017,0.803-2.355,2.901-7.129
			l10.786-24.414l9.159-1.288l-0.078,0.183L243.661,253.39z"/>
		<path fill="#FFFFFF" d="M328.259,278.214c-33.911,3.884-82.85,23.167-110.328,18.5c-3.437-0.584-6.598-1.374-9.424-2.555
			c1.309-1.821,14.52-21.129,0.341-26.674c-8.021-3.136-14.998,0.729-16.535,8.891c-0.98,5.207,0.479,10.676,3.399,15.035
			c-6.365,2.434-12.731,3.733-19.097,3.733c-4.438,0-8.711-0.656-12.982-1.971c-8.711-2.795-12.656-6.904-12.163-12.328
			c0.821-3.779,3.616-7.23,8.382-10.352c13.971-8.877,29.912-14.466,47.828-16.768c9.861,0.987,14.957-0.983,15.447-6.079
			l-1.313,0.164c-4.931,0.657-8.383,0.985-10.518,0.985c-2.96,0.165-5.754-0.822-8.384-2.793c-2.957-1.973-4.438-4.438-4.438-7.232
			c0-3.288,1.974-6.738,5.917-10.189c2.136,1.149,3.616,1.807,4.273,1.971c7.067,2.467,12.985,3.616,17.75,3.616
			c7.562,0,13.312-2.136,17.258-6.574c1.479-1.479,1.645-4.766,0.822-9.861s-5.259-7.725-13.147-7.56
			c-9.205,0.164-18.08,3.287-26.461,9.039l-2.796,1.809c-17.049-7.061-1.165-14.057,2.138-7.561
			c-0.303-12.892-28.427-7.257-9.533,9.204l2.465,1.807c-5.424,3.781-8.218,8.711-8.383,14.628
			c-0.164,4.602,1.316,8.053,4.768,10.52c-3.451,0.163-6.411,0.656-8.876,1.15c-12.327,2.629-20.708,5.425-25.31,8.383
			c-11.013,7.066-16.437,15.119-16.107,24.324c0.164,4.109,1.314,7.725,3.451,10.682c6.41,8.711,16.436,12.986,29.912,12.986
			c6.574,0,12.985-1.316,19.064-3.781c3.125-1.314,5.59-2.631,7.727-4.109c0.239-0.172,0.461-0.361,0.691-0.542
			c41.817,21.553,110.95-29.405,133.536-13.748c14.875,10.312-3.512,42.998-8.98,19.531c-0.73-3.14-5.545-1.809-4.822,1.33
			c2.127,9.217,5.854,12.67,15.062,9.288C346.942,312.155,363.151,274.217,328.259,278.214z M241.371,218.39
			c-3.093,16.127-32.516,7.187-33.01,5.707C221.555,214.601,241.934,213.718,241.371,218.39z M202.464,290.78
			c-1.883-2.042-4.904-6.328-6.017-9.566c-1.406-4.093-0.072-10.646,4.797-11.5c4.97-0.872,9.025,2.72,9.47,6.128
			C211.276,280.155,209.464,289.592,202.464,290.78z"/>
	</g>
	<path fill="#FFFFFF" d="M339.573,350.667c-0.114-0.374-0.354-0.626-0.845-0.762c-0.611-0.263-1.109-0.275-1.735,0.083
		c-4.538,3.6-7.18,5.639-8.059,6.112c-2.507,1.425-3.998,1.759-4.479,1.13c-0.719-0.883,0.468-3.945,3.561-9.189l3.216-5.238
		c1.413-2.316,2.192-3.781,2.081-4.278c-0.108-0.621-0.468-1.248-1.076-1.633c0,0-6.459-1.549-8.828-3.054l0.412-1.721
		c0.541-1.966-0.624-4.961-2.613-4.514c-2.337,0.928-8.222,25.532-26.761,28.169c-4.298,0.611-6.241-2.746-5.773-6.814
		c0.966,1.013,2.563,1.422,4.668,1.35c4.457-0.266,8.092-2.281,11.022-5.92c1.147-1.581,1.93-3.169,2.345-5.013
		c0.703-3.57-1.078-6.704-4.516-7.651c-2.705-0.683-5.817,0.232-9.216,2.747c-2.769,2.037-5.174,4.328-7.095,7.125
		c-2.448,3.446-3.796,6.626-4.114,9.599c-0.83,0.329-2.393,0.987-4.57,2.063c-3.376,1.526-5.74,2.212-6.97,1.812
		c-0.365-0.133-0.485-0.259-0.478-0.629c0.009-0.371,0.525-1.349,1.431-2.934c6.916-4.905,13.407-12.663,19.721-23.269
		c3.223-5.488,6.857-13.785,7.979-19.323c0.699-3.445,0.123-5.19-1.979-5.24c-2.842-0.067-8.301,6.951-13.814,15.227
		c-0.252,0.241-2.438,3.651-6.425,10.108c-3.344,5.361-7.463,13.021-10.469,19.749c-0.604,1.265-10.568,6.085-12.931,6.648
		l9.375-14.614c1.924-2.921,3.087-4.996,3.482-6.099c0.257-0.364,0.392-0.856,0.526-1.347c0.141-0.739-0.34-1.245-1.447-1.395
		c-1.97-0.417-3.211-0.2-3.728,0.654c-3.462,5.233-6.163,9.62-8.349,13.029c-0.767,1.096-1.656,2.187-2.544,3.03
		c-1.266,1.207-3.147,2.398-5.529,3.701c-2.627,1.297-4.621,1.992-5.981,1.96c-0.37-0.009-0.741-0.019-1.107-0.149
		c0.908-1.835,2.32-4.026,3.988-6.582c5.897-8.762,8.984-13.758,9.259-14.863c0.27-0.983-0.461-1.495-2.314-1.54
		c-1.481-0.035-2.477,0.188-2.86,0.797c-5.517,8.276-9.623,14.607-12.198,18.873c-1.16,1.951-2.063,3.536-2.467,4.888
		c-0.533,1.719,0.06,2.722,1.661,3.008c1.354,0.155,2.84,0.19,4.577-0.14c3.973-0.647,7.214-1.805,9.605-3.604l-2.055,3.167
		c-7.616,3.155-11.79,7.137-15.529,13.477c-0.809,1.435-1.459,2.794-1.961,4.077c-4.098-1.849-7.263-5.062-10.531-8.331
		c-1.602-1.602-3.19-3.217-4.788-4.82c0.496-0.605,0.992-1.226,1.486-1.875c2.428-3.28,6.672-10.227,12.614-20.842
		c6.066-10.735,11.184-17.908,15.597-21.512c5.05,0.861,9.365,1.336,13.196,1.428c4.573,0.109,8.405,0.077,11.505-0.221
		c11.151-0.97,16.786-3.926,16.901-8.746c0.009-0.371,0.018-0.742-0.099-1.115c-1.499,0.583-2.99,1.041-4.478,1.129
		c-5.824,0.479-12.378,0.57-19.911,0.143l-11.722-1.021l-9.251-0.963c-9.742-0.974-16.532-1.507-20.481-1.726
		c-8.524-0.327-15.844,0.735-21.962,3.186c-3.122,1.285-6.133,3.068-8.786,5.478c-3.157,2.769-5.08,5.566-6.012,8.388
		c-0.673,2.333-0.477,4.439,0.584,6.566c1.422,2.63,3.973,4.546,7.652,5.747c3.19,1.065,6.398,1.389,9.743,1.098
		c7.81-0.802,15.967-5.923,19.222-12.77c0.91-1.833,1.072-3.437,0.239-4.817c-0.832-1.379-2.176-2.153-4.267-2.574
		c-3.077-0.568-7.826,1.545-9.494,4.102c-1.028,1.581-0.929,2.697,0.291,3.345c0.135-0.492,0.52-1.1,1.279-1.824
		c1.517-1.324,3.138-1.903,4.988-1.735c1.109,0.149,1.841,0.538,2.194,1.288c0.236,0.375,0.223,0.995-0.169,1.851
		c-2.215,4.769-7.862,8.219-13.438,8.705c-2.852,0.303-5.566,0.115-7.895-0.808c-2.938-1.182-4.377-3.071-4.315-5.667
		c0.098-4.078,2.649-7.355,7.778-9.83c4.504-2.242,9.969-3.224,16.395-3.07c6.055,0.145,14.066,1.201,24.035,3.17
		c-4.996,2.107-10.193,7.423-15.589,15.949l-6.967,12.075c-2.781,4.928-5.135,8.761-6.977,11.52
		c-58.962-55.543-62.087,49.913-5.679,16.244c2.802-1.672,5.675-3.752,8.462-6.582c0.374,0.379,0.75,0.756,1.123,1.136
		c5.053,5.138,9.708,10.387,16.327,13.165c-0.012,0.167-0.031,0.34-0.035,0.503c-0.067,2.842,0.76,4.47,2.355,4.879
		c1.541,0.492,3.594-0.625,6.153-3.295c11.768,1.22,24.48-3.308,35.649-5.479c12.857-2.502,29.768-5.631,41.544,1.89
		c3.639,2.324,8.7,9.144,2.492,11.562c-4.368,1.701-8.904-0.487-8.872-5.395c0.022-3.221-4.976-3.345-4.999-0.119
		c-0.067,10.308,14.087,15.569,20.311,6.729c3.311-4.702,0.759-10-2.586-13.868c-4.95-5.729-13.144-7.507-20.314-8.155
		c-17.377-1.571-34.278,4.374-51.198,7.105c-2.635,0.426-5.315,0.688-7.992,0.703c1.145-1.692,3.018-4.561,5.549-8.613l5.648-8.768
		c5.229-1.483,9.726-3.353,13.612-5.608c0.053-0.032,0.097-0.064,0.148-0.096c-0.411,1.684-0.355,2.957,0.277,3.814
		c0.597,0.88,1.7,1.399,3.428,1.441c4.266,0.102,9.084-1.434,14.354-4.665c0.937,3.714,4.011,5.573,9.243,5.477
		c5.441-0.118,10.799-1.721,16.185-4.684c0.676-0.384,1.234-0.77,1.675-1.158c0.832-0.611,1.894-1.571,3.245-2.929
		c1.899-1.932,3.302-3.63,4.199-4.97c2.062-3.535,3.742-6.586,4.909-8.908c1.107,0.398,2.7,0.931,4.535,1.716l-1.042,2.324
		l-3.226,5.487c-2.195,4.028-3.254,6.848-3.051,8.706c0.407,3.595,2.221,5.368,5.433,5.446c1.731,0.041,4.479-1.13,8.371-3.509
		l2.765-1.913C338.392,353.606,339.794,351.786,339.573,350.667z M292.825,340.773c2.292-2.79,4.549-4.096,6.651-4.045
		c2.719,0.065,3.674,1.447,2.867,4.148L302.34,341c-1.042,2.323-3.189,4.127-6.437,5.533c-1.375,0.585-2.865,0.921-4.223,0.765
		c-1.355-0.156-2.092-0.421-2.201-1.042C289.377,345.389,290.535,343.562,292.825,340.773z M277.302,338.547
		c9.166-16.227,16.348-28.148,18.615-29.826c0.12,0.127,0.114,0.375,0.108,0.621c-0.141,0.739-0.419,1.969-1.079,3.807
		c-1.736,5.399-6.628,14.533-11.62,21.585c-3.456,4.987-6.759,8.617-9.658,10.898C274.589,343.428,275.879,341.109,277.302,338.547z
		 M184.639,371.634c-5.444,0.242-9.622-0.971-12.52-3.884c-2.175-2.154-3.227-4.652-3.152-7.742c0.092-3.83,1.65-7.008,4.558-9.658
		c3.034-2.771,6.406-3.987,10.224-3.59c7.422,0.772,16.442,11.021,19.515,13.896C197.625,367.539,191.473,371.256,184.639,371.634z
		 M240.525,365.857c-1.681,3.053-4.121,6.828-7.441,11.322c-0.016,0.021-0.029,0.04-0.045,0.062
		c-0.56-0.086-1.118-0.179-1.674-0.294c-0.62-0.128-1.213-0.294-1.793-0.479c2.151-5.761,7.106-11.04,12.629-13.535L240.525,365.857
		z"/>
	<g>
		<path fill="#FFFFFF" d="M330.757,413.239c1.732-2.967,2.844-4.82,3.465-5.688c0.369-0.987,0-1.604-1.238-1.729
			c-0.494-0.123-1.732,0.124-3.707,0.741c-1.361,0.37-3.34,0.617-5.686,0.617c-2.846,0-6.924-0.37-11.992-1.111
			c-5.809-0.866-9.764-1.361-12.113-1.484c-6.799-0.371-12.73,0.618-17.799,2.719c-6.553,2.843-10.383,6.8-11.744,11.992
			c-0.494,2.225-0.371,4.202,0.494,5.809c2.596,4.821,7.416,6.924,14.34,6.18c6.551-0.617,12.979-5.067,15.451-11.001
			c0.74-1.606,0.74-3.09,0.123-4.326c-0.617-1.112-1.732-1.854-3.584-2.224c-2.844-0.619-6.182,1.111-7.664,3.584
			c-0.744,1.359-0.619,2.225,0.371,2.843c0.123-0.371,0.371-0.864,0.988-1.483c1.111-1.236,2.473-1.73,4.08-1.483
			c0.863,0.124,1.48,0.494,1.727,1.113c0.248,0.37,0.248,0.865-0.123,1.606c-1.604,3.955-6.301,7.17-10.752,7.664
			c-2.719,0.247-5.068-0.124-7.045-1.236c-2.473-1.359-3.463-3.338-2.969-5.935c0.619-3.089,2.596-5.438,5.934-7.292
			c2.721-1.482,5.811-2.349,9.395-2.596c2.102-0.123,4.451,0,7.293,0.619c8.777,1.604,14.832,2.596,18.42,3.213l-7.912,7.911
			l-13.473,13.597l-7.787,7.294c-1.855-1.361-4.205-2.35-6.801-2.843c-3.213-0.619-6.303-0.619-9.145,0
			c-4.576,1.11-6.555,2.843-6.182,5.438c2.842-1.608,6.057-2.473,9.889-2.473c3.584,0,6.676,0.864,9.271,2.596
			c-16.318,14.834-29.295,22.248-38.814,22.248c-2.719,0-5.191-0.617-7.416-1.729c-2.473-1.36-4.078-3.34-4.697-5.812
			c-0.495-1.853-0.371-3.831,0.371-5.933c0.028-0.078,0.064-0.154,0.094-0.232c3.962,0.921,7.986,1.571,12.158,1.598
			c7.104,0.045,17.693-1.541,16.145-11.837c-0.625-4.146-6.221-7.563-10.969-7.204c-7.781,0.589-14.832,6.305-17.924,10.012
			c-0.519,0.635-0.984,1.273-1.426,1.913c-74.993-11.492-93.52-8.098-109.118-1.242c-4.188,1.84-8.074,4.83-9.5,9.625
			c-1.653,5.56,1.809,10.558,6.264,12.721c2.888,1.401,5.424-2.91,2.523-4.318c-2.605-1.265-6.888-3.097-4.483-6.615
			c15.821-23.149,103.16-8.826,111.884-6.412c-0.82,2.05-1.21,4.75-1.21,6.814c0,1.111,0.123,2.226,0.371,3.337
			c1.359,4.821,5.068,8.034,11.248,9.519c1.854,0.371,3.832,0.617,5.811,0.617c3.336,0,6.922-0.617,10.629-1.854
			c8.281-2.967,18.912-10.134,31.891-21.508c3.709,5.191,5.686,12.362,5.811,21.634v1.976c0.123,0.621,0.619,0.867,1.482,0.744
			l7.047-0.867c0.494-0.124,0.988-0.37,1.48-0.741c0.867-1.237,1.363-2.226,1.611-3.09c2.098-7.293,5.932-16.936,11.246-28.801
			C321.366,430.421,326.06,421.273,330.757,413.239z M250.165,441.792c3.127-0.261,6.273,0.583,7.135,3.714
			c1.49,5.423-6.914,5.392-10.367,5.496c-3.667,0.111-7.217-0.295-10.717-1.023C239.528,445.406,244.808,442.168,250.165,441.792z
			 M298.866,460.086c-1.729-5.315-4.201-9.763-7.539-13.35l7.291-6.55l21.139-19.779l-12.855,22.003
			C304.181,447.355,301.462,453.289,298.866,460.086z"/>
		<path fill="#FFFFFF" d="M393.741,432.961c-0.004,0-0.008,0.003-0.014,0.004c-0.02,0.033-0.039,0.067-0.059,0.102
			C393.692,433.03,393.714,433.002,393.741,432.961z"/>
		<path fill="#FFFFFF" d="M400.044,438.894c0,1.111,0.617,1.73,1.729,1.73c2.473,0,4.945-1.73,7.295-5.315
			c0.867-1.359,1.361-2.596,1.361-3.585c0-1.111-0.621-1.73-1.732-1.73c-2.596,0-4.945,1.73-7.293,5.315
			C400.538,436.668,400.044,437.904,400.044,438.894z"/>
		<path fill="#FFFFFF" d="M429.71,461.142c-5.314,2.843-8.158,4.328-8.281,4.328c-0.246,0-0.371-0.124-0.371-0.247
			c0-0.494,0.371-1.361,1.234-2.473l4.328-6.056c2.227-3.71,3.461-6.924,3.584-9.52c0.123-3.955-1.482-5.933-4.822-5.933
			c-2.225,0-4.943,1.111-8.156,3.337c0.369-0.74,0.617-1.359,0.742-1.855c0.125-0.74-0.373-1.234-1.484-1.357
			c-1.73-0.37-2.965-0.124-3.707,0.74c-1.113,1.236-3.215,4.575-6.305,9.89l-4.201,7.047l-0.498,0.864l-0.592,1.004
			c-0.336-0.053-0.75-0.02-1.26,0.107l-5.068,2.843c-2.596,1.484-4.326,1.979-5.314,1.608c-0.123,0,1.111-2.226,3.83-6.677
			c5.809-9.393,8.654-14.337,8.779-14.954c0.123-0.619-0.375-1.115-1.609-1.361c-1.607-0.247-2.842,0-3.584,0.742
			c-2.719,3.708-4.82,7.045-6.428,10.011l-3.338,5.812c-0.385,0.716-0.734,1.367-1.066,1.985c-0.371-0.192-0.92-0.192-1.652-0.01
			c-1.111,0.62-2.844,1.484-5.191,2.843c-2.596,1.484-4.328,1.979-5.191,1.608c-0.125,0,1.111-2.226,3.832-6.677l13.969-22.742
			h8.527c0.371,0,0.74-0.247,0.863-0.742l0.621-1.113c0.248-0.493,0.123-0.74-0.246-0.74h-8.213c0.08-0.136,0.152-0.258,0.229-0.389
			c-0.129,0.186-0.217,0.304-0.262,0.389h-0.039c0.119-0.356,0.238-0.481,0.359-0.49c1.877-3.203,2.988-5.124,3.104-5.938
			c0.123-0.619-0.369-1.113-1.607-1.359c-1.609-0.247-2.844,0-3.584,0.74c-1.238,1.238-2.842,3.585-4.697,7.047h-5.562
			c-0.371,0-0.74,0.247-0.99,0.74l-0.494,1.113c-0.248,0.495-0.248,0.742,0.123,0.742h5.562l-13.605,22.599
			c-0.236,0.034-0.473,0.111-0.732,0.267c-5.068,4.204-8.033,6.43-8.898,6.8c0.371-0.864,0.494-1.731,0.617-2.719
			c0.123-1.111,0-2.349-0.123-3.707l-1.975-8.158c-0.125-2.102,0.369-4.08,1.48-5.936c0.371-0.494,0.494-0.864,0.494-0.987
			c-0.371-0.124-0.617-0.124-0.988-0.124c-2.348-0.37-3.707-1.112-3.957-1.979c0.127-0.37,0.127-0.617,0.25-0.74
			c0.371-1.855-0.373-4.451-2.348-4.451c-0.621,0-1.238,0.37-1.855,1.112l-0.988,4.696c-0.744,4.204-2.225,8.035-4.574,11.622
			c-3.336,3.83-5.809,6.549-7.418,8.034l-0.74,0.617c-0.008,0.108-0.004,0.204-0.002,0.304c-0.316,0.178-0.643,0.362-0.984,0.561
			c-2.598,1.484-4.328,1.979-5.193,1.608c-0.246,0,0.988-2.226,3.832-6.677l5.561-8.651c2.104-3.337,3.34-5.562,3.465-6.427
			c0.123-0.619-0.498-1.114-1.609-1.361c-1.607-0.37-2.842-0.123-3.707,0.742c-3.092,4.326-5.314,7.91-6.924,10.632
			c-2.348,4.078-4.449,6.674-6.549,7.911c-5.068,3.09-8.162,4.324-9.396,3.831c-0.246,0,0.988-2.226,3.832-6.677l5.564-8.651
			c2.1-3.337,3.336-5.562,3.461-6.427c0.123-0.619-0.494-1.114-1.609-1.361c-1.605-0.37-2.842-0.123-3.584,0.742
			c-1.73,1.854-4.08,5.315-7.047,10.632l-2.965,5.315c-2.596,4.694-3.955,7.291-4.078,7.784c-0.373,1.979,0.123,3.093,1.729,3.34
			c2.844,0.37,5.809-0.247,9.025-1.854l3.83-1.855l2.473-2.099c-1.607,2.346-2.102,3.954-1.607,4.817
			c0.373,0.621,0.867,0.868,1.484,0.991c3.459,0.37,7.541-0.617,12.115-3.213c1.449-0.8,2.578-1.535,3.43-2.205
			c-0.066,0.413-0.098,0.813-0.098,1.214c0.127,1.732,1.115,3.09,2.971,4.204c1.605,0.864,3.336,1.358,5.191,1.358
			c0.246,0,0.371,0,0.371,0c3.336-0.124,6.178-0.617,8.527-1.481c2.318-1.118,4.332-2.235,5.971-3.353
			c-0.012,0.043-0.033,0.102-0.039,0.136c-0.373,2.103,0.125,3.217,1.605,3.34c3.588,0.37,7.541-0.617,12.115-3.213
			c0.904-0.499,1.689-0.975,2.361-1.425c-0.373,0.725-0.588,1.163-0.633,1.298c-0.371,2.103,0.123,3.217,1.732,3.34
			c3.459,0.37,7.416-0.617,11.99-3.213c0.422-0.232,0.812-0.459,1.182-0.681l-1.059,1.792c-0.496,0.987-0.619,1.608-0.373,1.979
			c0.123,0.247,0.498,0.37,1.115,0.37c3.582,0.494,4.076-0.617,5.932-3.46l1.238-2.226l1.852-2.966
			c2.967-4.821,4.822-7.911,5.686-9.149c3.34-3.953,6.182-5.932,8.531-5.932c1.852,0,2.473,1.357,1.975,4.2
			c-0.369,1.731-2.348,5.068-5.932,9.89c-3.336,4.327-4.82,7.17-4.451,8.528c0.375,1.484,2.596,1.731,6.801,0.867
			c5.932-2.349,9.766-4.327,11.371-5.809c0.619-0.991,0.99-1.608,0.99-1.979C431.688,461.142,431.067,460.771,429.71,461.142z
			 M357.153,464.852c-0.246,1.482-1.111,2.597-2.719,3.214c-1.855,0.864-3.338,0.864-4.699,0c-0.74-0.494-1.111-0.988-1.111-1.608
			c0-0.864,1.732-2.473,2.104-3.584c0.494-1.607-0.494-3.089-2.35-2.719c2.719-3.83,4.697-6.924,5.932-9.272
			c0.248-0.37,0.371-0.617,0.371-0.74l1.732,9.148C357.153,461.639,357.399,463.491,357.153,464.852z"/>
	</g>
	<g>
		<path fill="#FFFFFF" d="M392.416,521.746c-5.695,4.69-6.236,13.086-9.465,19.298c-2.203,4.241-5.699,5.127-10.174,4.058
			c-2.3-0.549-5.143-2.721-7.228-4.068c0.662-5.558-2.79-9.15-7.288-11.648c-11.916-6.616-30.993-8.678-44.212-8.603
			c-29.932,0.17-107.667,15-132.756-2.917c6.504-2.026,11.814-5.002,15.974-8.953c3.338-3.09,4.943-6.427,4.943-9.89
			c0-6.55-5.067-11.865-15.08-15.822h-0.123c5.314-1.481,9.889-3.583,13.844-6.179c5.934-4.077,8.9-7.911,8.9-11.741
			c0-5.192-4.203-9.149-12.732-11.868c-6.18-1.979-12.607-2.967-19.406-2.967c-5.686,0-11.248,0.617-16.688,1.979
			c-4.079,0.988-7.786,2.596-11.248,4.821c-4.573,2.843-6.922,5.933-6.922,9.27c-0.248,1.361-0.123,2.719,0.495,3.833
			c1.729,3.337,5.19,5.068,10.507,5.068c6.798,0,14.09-3.833,17.057-9.643c0.371-0.864,0.618-1.731,0.618-2.349
			c0-1.731-1.112-2.843-3.337-3.213c-2.596-0.494-4.82,0.37-6.799,2.596l-0.494,0.617c-0.37,0.617-0.495,0.987-0.495,1.361
			c0,0.37,0.248,0.74,0.618,0.987c0.371-1.361,3.09-2.596,4.574-2.596c0.865,0,1.483,0.247,1.854,0.864
			c0.123,0.37,0.123,0.867-0.246,1.484c-1.979,4.078-7.17,6.674-11.99,6.674c-3.338,0-5.439-0.864-6.428-2.473
			c-0.371-0.864-0.618-1.605-0.618-2.223c0-2.349,1.606-4.574,4.943-6.8c7.541-5.067,17.8-7.17,30.779-6.303
			c11.248,0.864,17.429,3.831,18.541,9.146c0.495,2.473-0.741,5.068-3.832,7.911c-4.944,4.451-12.113,7.664-21.507,9.52
			c-1.36,0.247-2.102,0.37-2.35,0.493c-0.494,0.371-0.741,0.741-0.865,1.358c0,1.114,0.742,1.608,2.102,1.731
			c10.26,0.494,15.451,4.451,15.822,11.868c0.123,4.571-2.596,8.775-8.406,12.605c-3.124,1.996-6.498,3.617-10.067,4.798
			c-4.54-2.624-8.828-5.636-13.041-8.765c3.413-4.612,7.12-10.746,11.118-18.404c6.057-11.498,11.125-19.532,15.328-24.104
			c1.112-1.238,2.225-2.226,3.09-2.843c-1.359-0.374-2.966-0.62-4.573-0.867c-6.057,1.361-12.237,7.17-18.294,17.307
			c-1.359,2.349-3.708,6.426-6.798,12.235c-2.54,4.748-4.782,8.604-6.642,11.577c-4.917-3.717-15.621-13.036-21.774-14.58
			c-25.269-6.34-43.888,43.393,11.48,33.042c5.315,1.357,11.373,2.102,18.048,2.102c4.599,0,8.732-0.269,12.411-0.843
			c10.057,5.199,20.876,7.822,32.284,9.476c30.767,4.457,61.936,0.364,92.791-0.637c14.637-0.476,29.814-1.055,44.307,1.346
			c5.662,0.938,13.693,2.383,17.215,7.487c0.339,0.491,0.566,1.002,0.732,1.522c-2.076-0.854-4.231-1.407-6.535-1.761
			c-7.619-1.167-23.076,0.432-24.121,9.658c-1.5,13.25,13.924,10.26,19.232,9.526c6.758-0.934,12.38-4.744,15.06-10.442
			c3.972,2.177,8.247,5.061,13.056,4.691c13.221-1.016,6.993-16.975,14.944-23.524C395.04,524.981,394.883,519.713,392.416,521.746z
			 M140.901,512.992c-6.551-3.586-9.765-8.157-9.765-13.843c0-0.867,0.123-1.608,0.247-2.473c-1.483,0.37-8.227,9.376,3.338,18.541
			l-2.596,0.371c-5.439,0.37-9.643-0.744-12.608-3.587c-2.102-1.976-3.214-4.571-3.214-7.661c0-3.834,1.483-7.17,4.326-9.89
			c2.844-2.719,6.315-3.324,10.136-3.71c6.079-0.613,15.45,9.362,20.326,12.999C148.086,507.664,144.389,510.9,140.901,512.992z
			 M156.971,516.329c-2.72,0-5.315-0.247-7.787-0.617c2.349-1.361,4.449-3.213,6.551-5.315c0.467-0.479,0.941-1.001,1.421-1.547
			c3.062,2.278,6.154,4.516,9.334,6.632C163.158,516.058,159.935,516.329,156.971,516.329z M360.418,544.75
			c-2.02,5.68-10.199,6.773-15.291,6.856c-2.381,0.039-12.332-0.184-10.119-4.074c2.385-4.195,11.186-5.458,15.371-5.671
			c3.745-0.19,7.123,0.103,10.254,1.672C360.599,543.635,360.454,544.649,360.418,544.75z"/>
	</g>
	<g>
		<path fill="#FFFFFF" d="M197.153,586.732c-5.063,3.486-10.233,5.618-15.637,6.278c-5.773,0.688-9.146-1.286-10.11-5.8
			c-0.777-3.658,0.146-7.818,2.878-12.614c1.633-2.976,3.795-5.496,6.347-7.8c3.13-2.843,6.135-4.062,8.893-3.654
			c3.518,0.598,5.602,3.537,5.26,7.16c-0.229,1.875-0.847,3.535-1.833,5.224c-2.553,3.912-5.965,6.281-10.375,6.99
			c-2.087,0.282-3.717,0.036-4.778-0.873c-0.059,4.094,2.084,6.162,6.426,6.201c3.101,0.011,6.712-1.38,10.952-4.307
			c0.815-0.682,1.524-1.11,2.123-1.404c1.451-0.481,2.219-0.169,2.313,1.065C199.818,584.298,198.917,585.484,197.153,586.732z
			 M190.591,572.233c0.534-2.769-0.559-4.047-3.27-3.839c-2.093,0.159-4.21,1.683-6.21,4.687c-2.003,3.004-2.971,4.938-2.781,5.794
			c0.17,0.606,0.929,0.796,2.292,0.815c1.366,0.02,2.817-0.462,4.127-1.183c3.09-1.725,5.044-3.734,5.851-6.151L190.591,572.233z"/>
		<path fill="#FFFFFF" d="M227.701,584.151c-3.641,2.634-7.928,4.946-12.982,6.941l-4.745,9.291
			c-3.113,6.31-5.066,9.929-5.618,10.838c-3.425,5.47-6.203,8.037-8.347,7.582c-1.63-0.247-2.615-1.784-2.832-4.619
			c-0.197-2.588,0.543-5.868,2.232-9.715c3.087-6.683,6.841-11.06,14.104-14.964l1.729-3.354c-2.2,2.029-5.31,3.505-9.199,4.548
			c-1.697,0.501-3.175,0.614-4.541,0.595c-1.62-0.123-2.312-1.064-1.95-2.826c0.266-1.386,1.005-3.051,1.965-5.108
			c2.136-4.504,5.589-11.213,10.247-20.001c0.322-0.644,1.292-0.966,2.77-1.078c1.85-0.142,2.625,0.295,2.454,1.302
			c-0.16,1.126-2.732,6.405-7.724,15.711c-1.405,2.712-2.59,5.033-3.313,6.949c0.381,0.095,0.751,0.066,1.121,0.038
			c1.354-0.104,3.27-0.992,5.755-2.547c2.238-1.534,3.992-2.909,5.131-4.233c0.797-0.932,1.576-2.104,2.229-3.27
			c1.832-3.614,4.082-8.246,7.004-13.8c0.426-0.902,1.642-1.243,3.641-1.024c1.117,0.039,1.65,0.496,1.584,1.244
			c-0.088,0.502-0.175,1.004-0.392,1.392c-0.285,1.14-1.234,3.321-2.856,6.419l-7.867,15.476c2.295-0.794,5.737-2.794,10.194-6.109
			c1.451-0.482,2.221-0.17,2.314,1.064C230.007,581.867,229.341,582.912,227.701,584.151z M207.047,594.529
			c-6.174,3.571-11.191,10.897-11.774,17.885c-0.057,0.871-0.019,1.364,0.122,1.601c0.143,0.237,0.275,0.351,0.512,0.209
			c0.836-0.436,1.964-1.884,3.493-4.604c2.855-4.806,4.905-8.804,6.271-12.01L207.047,594.529z"/>
		<path fill="#FFFFFF" d="M255.239,551.924c-0.086,0.502-0.436,0.776-0.805,0.805l-8.502,0.65l-12.198,23.739
			c-2.372,4.646-3.436,6.958-3.311,6.949c0.889,0.303,2.579-0.32,5.054-2c2.238-1.532,3.895-2.525,4.961-3.229
			c1.447-0.482,2.217-0.17,2.311,1.065c0.086,1.107-1.518,2.843-4.939,5.088c-4.364,2.938-8.235,4.224-11.836,4.128
			c-1.488-0.011-2.065-1.084-1.855-3.208c0.065-0.748,1.224-3.44,3.474-8.072l12.052-23.979l-5.546,0.423
			c-0.37,0.028-0.389-0.218-0.18-0.729l0.408-1.148c0.208-0.512,0.559-0.786,0.931-0.814l5.547-0.424
			c1.582-3.591,3.006-6.055,4.143-7.383c0.686-0.796,1.896-1.137,3.521-1.013c1.248,0.152,1.779,0.607,1.703,1.232
			c-0.059,0.874-1.129,3.063-2.951,6.797c-0.01-0.123,0.104-0.255,0.322-0.644c-0.123,0.01-0.236,0.142-0.332,0.521l8.258-0.631
			c0.369-0.028,0.512,0.208,0.303,0.72L255.239,551.924z"/>
		<path fill="#FFFFFF" d="M267.757,582.703c-2.012,1.269-4.316,1.94-7.168,1.91c-0.863,0.066-1.736,0.01-2.494-0.181
			c-1.766,1.25-3.549,2.256-5.48,2.898c-2.787,0.832-5.385,0.906-7.689-0.032c-2.559-1.045-3.953-3.048-4.168-5.882
			c-0.424-5.546,2.111-11.318,7.707-17.571c4.232-4.663,8.668-6.612,13.049-6.08c3.629,0.467,5.535,2.676,5.846,6.744
			c0.367,4.805-1.344,10.019-5.26,15.524c0.502,0.086,1.004,0.171,1.373,0.143c1.107-0.085,2.191-0.539,3.252-1.238
			c0.818-0.682,2.002-1.392,3.539-2.38c1.449-0.481,2.219-0.169,2.312,1.065C272.659,578.732,271.058,580.467,267.757,582.703z
			 M262.351,565.513c-0.51-1.822-1.818-2.712-3.789-2.562c-2.342,0.179-4.57,1.835-6.943,4.867c-2.58,3.547-3.824,6.739-3.609,9.574
			c0.273,3.573,2.002,5.055,5.176,4.439c-0.689-0.94-1.258-1.888-1.465-2.985c-0.598-2.933,0.322-5.48,2.76-7.65
			c0.473,2.939,1.768,5.319,4.018,7.133c1.934-2.257,3.236-4.712,3.879-7.612C262.853,568.82,262.843,567.084,262.351,565.513z"/>
		<path fill="#FFFFFF" d="M300.585,577.592c-1.49,1.6-5.16,3.864-10.895,6.659c-4.123,1.182-6.359,1.104-6.844-0.348
			c-0.473-1.325,0.789-4.273,3.789-8.843c3.203-5.08,4.92-8.558,5.158-10.312c0.277-2.872-0.443-4.18-2.293-4.039
			c-2.342,0.18-5.023,2.368-8.047,6.565c-0.77,1.3-2.383,4.521-4.973,9.555l-1.625,3.1l-1.061,2.312
			c-1.633,2.976-2.041,4.121-5.654,3.902c-0.615,0.048-0.996-0.048-1.137-0.285c-0.273-0.35-0.199-0.978,0.219-2.001l4.186-8.501
			l0.426-0.898l3.654-7.347c2.676-5.536,4.52-9.023,5.531-10.342c0.674-0.918,1.889-1.259,3.641-1.021
			c1.121,0.039,1.65,0.493,1.584,1.241c-0.086,0.506-0.283,1.14-0.598,1.906c3.031-2.463,5.658-3.778,7.879-3.948
			c3.326-0.254,5.08,1.597,5.258,5.549c0.074,2.598-0.914,5.896-2.85,9.764l-3.852,6.368c-0.781,1.174-1.084,2.067-1.047,2.56
			c0.01,0.123,0.143,0.236,0.389,0.218c0.123-0.01,2.844-1.706,7.928-4.945c1.33-0.474,1.973-0.15,2.068,1.083
			C301.448,575.914,301.126,576.558,300.585,577.592z"/>
	</g>
	<path fill="#FFFFFF" d="M264.413,590.838c-66.06,25.974-92.966-5.851-119.197,0.562c-0.996-1.938-2.089-3.818-3.212-5.627
		c0.209-0.24,0.42-0.48,0.624-0.729c4.08-5.023,8.645-13.431,13.703-25.097c5.06-11.67,9.5-20.067,13.466-24.955
		c0.796-0.931,1.718-1.867,2.988-3.079c6.502,2.354,10.027,6.298,10.801,11.569c0.71,4.41-1.275,9.273-5.82,14.703
		c-6.477,7.683-14.775,12.657-25.149,14.815c-1.581,0.368-2.397,1.05-2.313,2.157c0.455,1.083,2.312,1.064,3.67,0.961
		c7.166-0.3,15.112-3.387,23.837-9.26c10.139-6.848,14.92-14.033,14.345-21.552c-0.075-0.984-0.273-1.964-0.48-3.062
		c-1.646-6.941-7-12.11-15.796-15.28c-7.015-2.562-14.655-3.592-22.912-2.96c-15.16,1.158-26.302,6.226-33.416,15.322
		c-3.046,3.95-4.611,7.791-4.709,11.392c-0.171,1.004-0.22,2.001-0.145,2.986c0.518,6.78,6.557,11.154,13.333,10.637
		c4.191-0.32,8.146-2.112,11.741-5.361c3.365-2.984,5.946-6.527,7.485-10.738c0.939-2.304,1.044-4.172,0.552-5.744
		c-0.787-2.172-2.348-3.166-4.812-2.978c-3.083,0.235-5.549,2.032-7.152,5.378c-0.968,1.935-0.989,3.301,0.056,3.964
		c0.341-2.011,3.139-4.332,5.234-4.492c1.108-0.085,1.763,0.364,2.22,1.443c0.16,0.482-0.031,1.241-0.335,2.134
		c-2.146,5.99-7.496,10.614-13.534,11.076c-4.562,0.348-7.271-1.057-8.132-4.215c-0.16-0.481-0.208-1.102-0.264-1.839
		c-0.311-4.065,1.615-8.058,5.779-11.971c5.321-4.994,12.253-8.375,20.673-10.136c2.56-0.566,5.014-0.877,7.356-1.057
		c5.546-0.424,10.665,0.055,15.47,1.297c-6.444-0.002-12.905,6.317-19.253,18.953l-5.724,12.708
		c-2.534,5.774-4.679,10.151-6.312,13.127c-0.572,1.013-1.159,1.969-1.756,2.889c-3.739-5.135-13.73-17.918-27.475-14.519
		c-7.476,1.85-12.289,12.311-11.916,18.247c1.058,16.863,21.673,14.337,26.196,13.493c5.433-1.047,10.182-3.234,14.247-6.645
		c0.699,1.127,1.423,2.344,2.119,3.624c-4.305,2.139-7.676,6.101-9.36,12.706c-1.312,5.148-0.82,14.24,5.96,15.073
		c7.084,0.87,12.425-7.046,12.531-13.276c0.067-3.918-1.204-8.752-2.648-12.437c8.325-1.852,21.301,1.796,28.656,5.333
		c10.84,5.211,22.388,9.944,34.726,10.385c28.325,1.011,55.583-15.323,68.128-18.412c22.643-5.574,35.256,12.532,29.547,18.908
		c-2.91,3.252-14.975,6.884-19.031,1.141c-1.746-2.474,0.799-4.919,1.74-6.768c1.467-2.881-3.037-5.055-4.498-2.187
		c-10.246,20.116,29.402,20.846,29.131,2.99C315.214,595.811,295.083,578.779,264.413,590.838z M119.606,592.009
		c-5.396,0.785-9.669-0.006-12.845-2.614c-2.378-1.924-3.677-4.304-3.912-7.385c-0.292-3.823,1.284-6.867,3.571-10.067
		c9.428-13.192,24.024,5.798,27.768,11.103C129.93,588.125,125.103,591.148,119.606,592.009z M143.397,612.024
		c-1.71,3.23-6.691,5.678-7.638,0.895c-0.726-3.667,0.2-8.228,2.518-11.174c1.347-1.712,2.501-4.059,4.147-5.013
		C144.38,601.555,145.655,607.758,143.397,612.024z"/>
	<text transform="matrix(1 0 0 1 199.6401 537.9346)" fill="#FFFFFF" font-family="'BlessedDay'" font-size="128.3955">riana</text>
</g>
</svg>
