<?xml version="1.0" encoding="utf-8"?>
<!-- Generator: Adobe Illustrator 16.0.0, SVG Export Plug-In . SVG Version: 6.00 Build 0)  -->
<!DOCTYPE svg PUBLIC "-//W3C//DTD SVG 1.1//EN" "http://www.w3.org/Graphics/SVG/1.1/DTD/svg11.dtd">
<svg version="1.1" id="Layer_1" xmlns="http://www.w3.org/2000/svg" xmlns:xlink="http://www.w3.org/1999/xlink" x="0px" y="0px"
	 width="203.109px" height="185.228px" viewBox="0 0 203.109 185.228" enable-background="new 0 0 203.109 185.228"
	 xml:space="preserve">
<g>
	<g>
		<g>
			<path fill="#FFFFFF" d="M48.194,18.53c2.145-2.618,4.436-4.882,6.879-6.788c2.438-1.904,4.972-3.753,7.592-5.538
				c3.454-2.262,7.415-3.959,11.882-5.093c4.466-1.13,8.96-1.398,13.488-0.804c1.786,0.24,3.542,0.715,5.27,1.429
				c1.726,0.716,3.274,1.697,4.646,2.948c1.368,1.251,2.501,2.858,3.395,4.824c0.894,1.965,1.398,4.318,1.519,7.057
				c0.118,2.858-0.418,5.837-1.608,8.933c-1.191,3.099-2.889,6.164-5.091,9.201c-2.206,3.036-4.854,5.926-7.951,8.665
				c-3.098,2.74-6.493,5.181-10.183,7.324c-0.954,0.598-1.907,1.161-2.859,1.697c-0.954,0.536-2.232,1.192-3.84,1.966
				c-1.608,0.775-3.635,1.669-6.074,2.68c-2.443,1.013-5.569,2.233-9.38,3.662c-3.813,1.55-7.236,2.948-10.272,4.198
				c-3.038,1.251-5.569,2.354-7.594,3.306h2.145c4.404,0,8.812,0.835,13.22,2.501c7.147,3.099,12.506,4.646,16.08,4.646
				c3.096,0,5.597-0.773,7.504-2.323c0.355-0.237,0.714-0.505,1.071-0.804c0.356-0.296,0.715-0.506,1.072-0.625
				c0.714-0.237,1.309-0.179,1.786,0.179c0.475,0.357,0.595,0.954,0.357,1.786c-0.121,0.24-0.268,0.508-0.447,0.804
				c-0.178,0.299-0.329,0.566-0.446,0.805c-2.264,2.979-4.617,5.538-7.058,7.682c-2.441,2.145-5.032,3.993-7.771,5.538
				c-5.718,3.216-11.733,4.824-18.044,4.824c-3.456,0-6.432-0.477-8.934-1.43c-2.5-0.951-4.407-1.845-5.716-2.68
				c-2.385-1.429-4.824-2.617-7.326-3.573c-2.5-0.951-5.002-1.429-7.504-1.429c-2.025,0-3.991,0.357-5.895,1.072
				c-1.31,0.598-2.502,1.429-3.573,2.501c-1.072,1.072-2.083,2.264-3.037,3.573c-0.715,0.955-1.488,1.429-2.322,1.429
				c-0.595,0-1.189-0.296-1.787-0.894c-0.595-0.832-0.743-1.607-0.447-2.322c0.3-0.714,0.567-1.25,0.805-1.607
				c4.287-7.026,12.743-13.815,25.368-20.367c1.905-0.952,3.753-1.846,5.539-2.68c1.787-0.832,3.573-1.667,5.359-2.501
				c3.811-1.904,7.594-3.78,11.345-5.628c3.751-1.846,7.474-3.899,11.167-6.164c2.5-1.429,5.061-3.394,7.683-5.895
				c2.617-2.502,5.119-5.004,7.502-7.505c3.097-3.216,5.329-6.49,6.7-9.825c1.368-3.333,1.814-6.371,1.34-9.111
				c-0.24-1.904-1.191-3.69-2.858-5.36c-1.67-1.666-4.05-2.501-7.146-2.501c-1.787,0-3.604,0.269-5.45,0.805
				c-1.848,0.535-3.662,1.28-5.448,2.232c-1.786,0.955-3.426,2.085-4.914,3.395c-1.49,1.312-2.709,2.741-3.662,4.288
				c-1.312,2.026-2.115,3.991-2.412,5.896c-0.298,1.906,0.564,3.157,2.591,3.752c1.43,0.477,2.887,0.446,4.378-0.09
				c1.487-0.536,3.006-1.34,4.556-2.412c1.309-0.831,2.171-1.131,2.59-0.893c0.417,0.239,0.564,0.745,0.446,1.519
				c-0.119,0.775-0.418,1.728-0.893,2.858c-0.478,1.134-0.955,2.115-1.43,2.947c-1.191,2.026-3.067,4.26-5.628,6.7
				c-2.562,2.442-5.867,4.317-9.914,5.627c-3.1,0.955-5.718,0.598-7.862-1.071c-2.144-1.667-2.857-4.584-2.144-8.755
				c0.476-2.738,1.547-5.744,3.216-9.021C43.429,24.814,45.573,21.63,48.194,18.53z"/>
		</g>
		<g>
			<path fill="#FFFFFF" d="M117.542,83.629c0-3.213-1.243-5.337-2.746-7.358c-2.177,2.487-5.39,4.509-11.038,4.509
				c-8.237,0-14.818-2.592-14.818-9.69c0-4.404,2.072-7.357,8.136-8.704c-2.903-2.644-4.561-5.286-4.561-8.965
				c0-7.099,5.855-10.001,11.918-10.001c7.254,0,10.363,2.851,10.363,6.892c0,3.575-2.644,6.426-8.344,8.395
				c1.141,0.777,2.488,1.658,4.043,2.643c2.746,1.762,5.544,3.524,7.875,5.752c0.571-2.643,0.829-5.183,0.881-7.565h-4.094v-1.036
				h9.017v1.036h-3.627c-0.051,2.953-0.311,5.855-0.984,8.757c2.487,2.746,4.508,5.441,4.508,10.519
				c0,7.41-6.165,14.405-12.902,14.405c-4.508,0-7.099-1.969-7.099-5.233c0-2.591,1.814-4.353,4.301-4.353
				c2.643,0,4.146,1.295,4.146,3.73c0,0.519-0.104,1.141-0.312,1.866h-1.812c-0.519,1.554-0.207,2.746,1.864,2.746
				C115.78,91.972,117.542,87.981,117.542,83.629z M113.914,75.183c-1.71-1.813-3.575-3.316-6.684-5.389
				c-3.783-2.487-6.996-4.508-9.431-6.633c-0.519,1.088-0.776,2.901-0.776,6.477c0,7.358,2.901,9.794,8.187,9.794
				C109.458,79.432,112.152,77.515,113.914,75.183z M105.52,58.083c3.213-1.71,3.265-4.041,3.265-7.461
				c0-4.146-1.555-6.114-4.508-6.114c-2.177,0-4.768,1.088-4.768,5.285C99.509,53.006,100.804,54.818,105.52,58.083z"/>
		</g>
		<g>
			<path fill="#FFFFFF" d="M157.116,27.542c2.025-0.475,4.347-0.715,6.969-0.715c1.903,0,3.81,0.24,5.715,0.715
				c1.904,0.478,3.782,0.982,5.628,1.519c1.846,0.535,3.722,1.014,5.63,1.429c1.901,0.419,3.867,0.626,5.895,0.626
				c1.786,0,3.334-0.327,4.645-0.983c1.31-0.652,2.439-1.397,3.396-2.232c0.95-0.832,1.813-1.577,2.59-2.233
				c0.771-0.653,1.518-0.983,2.231-0.983c0.595,0,1.162,0.241,1.697,0.716c0.537,0.477,0.806,1.071,0.806,1.785
				c0,0.479-0.179,0.895-0.537,1.251c-2.025,2.265-4.108,4.439-6.252,6.521c-2.145,2.085-4.229,4.26-6.253,6.521
				c-3.455,3.813-6.731,7.655-9.827,11.523c-3.098,3.872-6.192,7.833-9.29,11.881c-5.359,7.146-10.659,14.175-15.9,21.081
				c-5.242,6.909-10.244,14.114-15.007,21.618c-0.239,0.357-0.687,1.072-1.34,2.144c-0.656,1.072-1.37,2.175-2.145,3.306
				c-0.775,1.133-1.518,2.143-2.232,3.037c-0.715,0.893-1.251,1.34-1.608,1.34h-0.357c-3.455-0.832-7.386-1.25-11.791-1.25
				c-2.621,0-5.181,0.178-7.683,0.535c-0.598,0.12-1.222,0.237-1.876,0.357c-0.655,0.117-1.28,0.178-1.876,0.178
				c-1.188,0-1.786-0.474-1.786-1.429c0-0.356,0.18-0.716,0.536-1.071l68.604-67.532c-2.501,1.191-5.18,1.786-8.039,1.786
				c-2.383,0-4.556-0.326-6.521-0.982c-1.966-0.653-3.871-1.34-5.718-2.055c-1.848-0.714-3.724-1.398-5.628-2.055
				c-1.906-0.653-3.931-0.982-6.074-0.982c-2.621,0-4.675,0.478-6.164,1.429c-1.489,0.955-2.71,1.966-3.662,3.038
				c-0.955,1.071-1.758,2.085-2.411,3.037c-0.656,0.954-1.341,1.429-2.055,1.429c-1.43,0-2.144-0.832-2.144-2.501
				c0-1.547,1.161-3.663,3.483-6.343c2.322-2.679,5.03-5.329,8.129-7.95c3.095-2.618,6.133-4.852,9.111-6.699
				c2.977-1.846,5.182-2.77,6.61-2.77c0.594,0,1.161,0.151,1.697,0.447c0.535,0.299,0.804,0.745,0.804,1.34V27.542z"/>
		</g>
	</g>
	<text transform="matrix(1 0 0 1 0 155.3389)" fill="#FFFFFF" font-family="'AbrilFatface-Regular'" font-size="33.5222">COFFEE BAR</text>
	<g>
		<g>
			<path fill="#FFFFFF" d="M53.375,169.518c-0.092,1.128-0.184,2.257-0.275,3.386c-0.104-0.014-0.207-0.027-0.311-0.042
				c-0.65-2.352-1.345-3.222-3.413-3.519c-0.199-0.029-0.398-0.058-0.598-0.087c-0.255,1.746-0.51,3.493-0.766,5.239
				c0.196,0.028,0.393,0.058,0.589,0.086c1.128,0.162,1.987-0.67,2.458-1.92c0.086,0.012,0.172,0.023,0.258,0.035
				c-0.23,1.675-0.461,3.351-0.692,5.025c-0.099-0.014-0.198-0.027-0.297-0.041c-0.185-1.756-0.75-2.508-1.965-2.684
				c-0.139-0.02-0.277-0.04-0.416-0.061c-0.265,1.813-0.53,3.628-0.795,5.441c0.223,0.032,0.446,0.065,0.669,0.098
				c2.239,0.322,3.991-0.95,4.758-2.732c0.116,0.016,0.232,0.03,0.349,0.046c-0.209,1.229-0.418,2.457-0.628,3.686
				c-3.23-0.426-6.456-0.894-9.677-1.403c0.02-0.125,0.04-0.249,0.059-0.374c0.346,0.055,0.691,0.109,1.038,0.163
				c0.576-3.702,1.151-7.404,1.727-11.106c-0.335-0.053-0.671-0.105-1.006-0.158c0.02-0.124,0.04-0.248,0.059-0.372
				C47.455,168.691,50.413,169.122,53.375,169.518z"/>
			<path fill="#FFFFFF" d="M61.28,180.55c0.152-1.415-0.887-1.988-2.965-2.834c-2.048-0.826-3.544-1.848-3.215-4.415
				c0.246-1.903,1.892-3.502,4.521-3.195c1.573,0.182,2.406,0.805,2.989,0.867c0.291,0.031,0.39-0.078,0.534-0.287
				c0.062,0.006,0.125,0.013,0.188,0.02c-0.081,1.152-0.161,2.304-0.241,3.455c-0.093-0.009-0.185-0.019-0.277-0.028
				c-0.718-1.663-1.695-3.49-3.457-3.694c-1.231-0.144-2.175,0.464-2.298,1.468c-0.155,1.258,0.966,1.829,2.662,2.488
				c1.862,0.732,3.929,1.6,3.641,4.43c-0.249,2.453-2.15,3.899-4.754,3.602c-1.718-0.197-3.139-0.891-3.632-0.952
				c-0.283-0.035-0.411,0.137-0.593,0.443c-0.083-0.011-0.165-0.021-0.248-0.032c0.112-1.355,0.225-2.712,0.339-4.067
				c0.099,0.013,0.198,0.025,0.297,0.038c0.655,1.811,2.125,4.013,4.072,4.235C59.902,182.211,61.146,181.794,61.28,180.55z"/>
			<path fill="#FFFFFF" d="M74.886,176.05c-0.11-0.009-0.22-0.017-0.33-0.024c-0.733-2.855-1.171-4.038-2.735-4.165
				c-0.069-0.006-0.138-0.012-0.207-0.018c-0.308,3.746-0.616,7.492-0.924,11.238c0.501,0.041,1.003,0.081,1.504,0.12
				c-0.009,0.12-0.019,0.24-0.028,0.359c-2.156-0.169-4.312-0.355-6.466-0.562c0.012-0.12,0.023-0.239,0.035-0.359
				c0.501,0.048,1.002,0.095,1.504,0.141c0.343-3.742,0.686-7.485,1.028-11.228c-0.075-0.007-0.149-0.014-0.224-0.021
				c-1.562-0.145-2.264,1.076-3.414,3.631c-0.109-0.011-0.219-0.021-0.329-0.033c0.202-1.42,0.404-2.841,0.605-4.262
				c3.37,0.341,6.744,0.634,10.12,0.88C74.979,173.182,74.932,174.615,74.886,176.05z"/>
			<path fill="#FFFFFF" d="M80.379,184.113c-1.674-0.095-3.348-0.2-5.021-0.316c0.008-0.108,0.015-0.217,0.023-0.325
				c0.39,0.026,0.779,0.054,1.169,0.079c0.251-3.772,0.502-7.546,0.753-11.318c-0.378-0.025-0.756-0.051-1.134-0.077
				c0.008-0.108,0.015-0.217,0.023-0.324c1.769,0.123,3.538,0.233,5.307,0.331c4.237,0.229,6.535,1.822,6.386,6.091
				C87.718,183.079,84.625,184.352,80.379,184.113z M80.68,183.803c2.396,0.132,3.407-1.319,3.582-5.151
				c0.016-0.331,0.031-0.662,0.046-0.993c0.191-4.161-0.835-5.061-3.241-5.194c-0.137-0.008-0.274-0.016-0.411-0.023
				c-0.217,3.774-0.433,7.55-0.649,11.325C80.231,183.778,80.456,183.791,80.68,183.803z"/>
		</g>
		<g>
			<path fill="#FFFFFF" d="M130.72,174.313c0.151,1.976-1.089,2.955-5.174,6.247c-0.342,0.274-0.684,0.548-1.027,0.82
				c1.41-0.087,2.819-0.182,4.229-0.284c1.726-0.127,2.12-0.969,2.277-2.305c0.099-0.008,0.198-0.016,0.297-0.023
				c0.068,1.582,0.137,3.164,0.203,4.746c-2.776,0.222-5.555,0.412-8.334,0.572c-0.038-0.662-0.076-1.323-0.114-1.985
				c0.563-0.563,1.124-1.13,1.683-1.696c2.14-2.161,3.075-3.659,2.905-6.051c-0.121-1.693-0.501-2.402-1.685-2.323
				c-1.014,0.068-1.26,0.82-1.225,1.368c0.009,0.138,0.056,0.307,0.137,0.489c0.172-0.011,0.345-0.021,0.517-0.033
				c0.101,0.217,0.168,0.437,0.189,0.761c0.053,0.804-0.571,1.378-1.441,1.432c-1.078,0.065-1.589-0.661-1.637-1.501
				c-0.08-1.439,1.038-2.678,3.814-2.865C128.959,171.502,130.558,172.313,130.72,174.313z"/>
			<path fill="#FFFFFF" d="M136.931,170.805c3.026-0.296,5.349,1.109,5.857,5.589c0.51,4.478-1.57,6.406-4.658,6.707
				c-3.728,0.359-5.574-2.115-5.864-5.681C131.904,172.961,133.941,171.096,136.931,170.805z M135.923,177.992
				c0.334,3.6,0.455,4.916,2.172,4.751c1.683-0.166,1.604-1.47,1.247-4.947c-0.051-0.5-0.103-1-0.153-1.5
				c-0.411-4.024-0.543-5.298-2.223-5.133c-1.645,0.158-1.529,1.591-1.185,5.311C135.829,176.979,135.875,177.485,135.923,177.992z"
				/>
			<path fill="#FFFFFF" d="M143.004,171.04c-0.024-0.111-0.049-0.224-0.073-0.336c1.271-0.323,2.538-0.653,3.804-0.99
				c0.461-0.058,0.923-0.116,1.384-0.175c0.505,3.92,1.01,7.84,1.515,11.76c0.459-0.059,0.917-0.119,1.375-0.18
				c0.015,0.107,0.029,0.216,0.043,0.323c-2.224,0.295-4.448,0.569-6.676,0.824c-0.012-0.107-0.024-0.216-0.037-0.323
				c0.618-0.071,1.235-0.144,1.854-0.217c-0.444-3.715-0.888-7.43-1.331-11.145C144.242,170.736,143.624,170.889,143.004,171.04z"/>
			<path fill="#FFFFFF" d="M152.231,175.023c-0.104-0.031-0.208-0.063-0.312-0.095c-0.248-1.806-0.496-3.611-0.744-5.416
				c0.083-0.08,0.165-0.161,0.247-0.241c1.444,0.015,5.24-0.167,5.736-0.249c0.393-0.062,0.515-0.289,0.571-0.817
				c0.088-0.002,0.175-0.004,0.262-0.006c0.159,2.802-0.063,3.427-0.732,3.529c-0.379,0.058-0.865-0.006-1.473-0.072
				c-1.298-0.136-2.593-0.278-3.885-0.428c0.124,1.102,0.247,2.203,0.37,3.306c0.724-0.516,1.603-0.899,2.622-1.049
				c3.451-0.509,4.719,1.099,5,2.861c0.389,2.419-1.298,4.203-4.443,4.659c-1.41,0.206-3.726-0.016-4.004-2.105
				c-0.111-0.833,0.295-1.646,1.377-1.797c0.872-0.121,1.565,0.247,1.689,1.112c0.046,0.321,0.021,0.654-0.035,0.888
				c-0.193,0.027-0.386,0.055-0.579,0.082c-0.045,0.196-0.054,0.371-0.025,0.574c0.064,0.458,0.4,1.07,1.477,0.915
				c1.498-0.217,1.346-1.601,1.001-3.923c-0.315-2.118-0.619-2.973-2.004-2.771C153.622,174.085,152.9,174.481,152.231,175.023z"/>
		</g>
		<g>
			<path fill="#A53737" d="M106.593,175.282c0.618-0.638,1.351-1.152,2.184-1.501c0.339-0.142,0.8-0.117,0.546-0.519
				c-0.121-0.19-0.496-0.338-0.699-0.425c-2.285-0.962-5.355-0.225-7.628,2.016c-2.396,2.365-3.125,5.66-1.833,7.952
				c0.405,0.72,0.796,1.058,1.621,0.729c0.347-0.138,0.681-0.317,1.006-0.559c0.227-0.167,0.437-0.347,0.632-0.536
				c0.819-0.798,1.381-1.791,1.715-2.84C104.664,177.952,105.46,176.435,106.593,175.282z M111.416,176.242
				c-0.097-0.454-0.248-1.159-0.759-1.312c-0.388-0.114-0.92,0.099-1.272,0.247c-0.625,0.265-1.178,0.662-1.684,1.167
				c-0.902,0.92-1.608,2.226-2.073,3.705c-0.394,1.248-1.068,2.463-2.091,3.463c-0.242,0.237-0.506,0.462-0.786,0.673
				c-0.219,0.164-0.733,0.305-0.841,0.562c-0.188,0.439,0.732,0.41,1.056,0.443c2.078,0.226,4.459-0.622,6.252-2.435
				C111.131,180.827,111.873,178.315,111.416,176.242z"/>
		</g>
	</g>
</g>
</svg>
